<?xml version="1.0" standalone="no"?>
<!DOCTYPE svg PUBLIC "-//W3C//DTD SVG 20010904//EN"
 "http://www.w3.org/TR/2001/REC-SVG-20010904/DTD/svg10.dtd">
<svg version="1.0" xmlns="http://www.w3.org/2000/svg"
 width="1024.000000pt" height="1024.000000pt" viewBox="0 0 1024.000000 1024.000000"
 preserveAspectRatio="xMidYMid meet">

<g transform="translate(0.000000,1024.000000) scale(0.100000,-0.100000)"
fill="#000000" stroke="none">
<path d="M0 5120 l0 -5120 5120 0 5120 0 0 5120 0 5120 -5120 0 -5120 0 0
-5120z m5272 4169 c174 -37 323 -185 359 -357 7 -37 10 -115 7 -224 -5 -166
-5 -167 -34 -204 -16 -20 -35 -45 -43 -55 -11 -16 -12 -81 -6 -374 l7 -355
129 0 129 0 0 200 0 200 -49 47 c-78 76 -90 166 -36 260 29 48 108 93 164 93
46 -1 108 -29 143 -66 110 -118 52 -301 -107 -334 l-30 -6 -3 -387 -2 -387
-40 0 -40 0 0 120 0 120 -195 0 -195 0 0 416 0 416 59 63 c66 71 96 127 111
204 52 275 -98 517 -350 563 -277 52 -529 -225 -482 -529 17 -104 39 -149 116
-230 l66 -70 0 -418 0 -417 -195 4 -195 4 0 -123 0 -123 -45 0 -45 0 0 390 0
390 -28 0 c-15 0 -50 14 -76 30 -64 41 -90 98 -84 186 5 76 38 126 108 162
152 77 323 -72 274 -237 -10 -35 -29 -65 -62 -98 l-47 -48 3 -197 4 -198 129
0 129 0 2 358 3 357 -31 35 c-17 19 -36 44 -42 55 -6 12 -14 95 -17 185 -6
137 -5 176 9 229 63 247 294 399 528 350z m15 -154 c186 -55 285 -294 199
-480 -45 -99 -128 -162 -243 -186 -114 -24 -235 24 -314 123 -54 69 -72 132
-67 232 5 96 41 175 108 243 76 76 201 103 317 68z m-629 -167 l-3 -33 -155
-31 c-194 -39 -312 -70 -513 -136 -154 -51 -197 -73 -197 -104 0 -23 46 -64
73 -64 13 0 79 20 147 45 178 66 359 120 485 145 61 12 120 24 133 27 20 5 22
1 22 -31 0 -31 -3 -36 -22 -36 -73 0 -435 -102 -630 -178 -107 -41 -138 -46
-187 -26 -56 22 -81 56 -81 110 0 36 6 51 33 80 52 56 370 158 732 233 178 37
167 37 163 -1z m1301 -14 c184 -38 313 -74 481 -134 175 -63 200 -84 200 -172
0 -34 -6 -46 -36 -74 -53 -51 -108 -48 -273 15 -201 77 -331 114 -588 166 -28
6 -33 11 -33 36 0 29 1 30 38 23 211 -36 410 -90 603 -164 73 -27 142 -50 154
-50 29 0 75 36 75 59 0 24 -36 55 -90 76 -175 68 -485 153 -668 181 -110 18
-112 19 -112 44 0 48 -14 48 249 -6z m1049 -404 c47 -90 7 -182 -85 -196 -39
-6 -54 -1 -148 47 -103 52 -120 70 -94 96 9 9 29 3 80 -23 38 -19 71 -34 73
-34 2 0 10 16 16 35 6 19 25 46 41 59 l29 25 -60 33 c-54 30 -60 36 -60 66 l0
33 93 -48 c80 -42 95 -54 115 -93z m-3438 95 c0 -18 -13 -30 -55 -54 l-56 -32
31 -37 c17 -21 30 -48 30 -64 l0 -28 75 37 c73 36 75 37 90 18 8 -11 15 -23
15 -26 0 -3 -46 -29 -102 -57 -119 -61 -160 -66 -207 -27 -58 50 -64 136 -14
195 26 31 171 112 186 103 4 -2 7 -15 7 -28z m-330 -196 c0 -9 -47 -47 -112
-91 -62 -41 -144 -100 -182 -130 -59 -48 -72 -54 -88 -45 -10 7 -18 15 -18 20
0 22 157 146 294 231 90 57 105 59 106 15z m4025 -34 c130 -87 250 -185 250
-204 0 -8 -8 -19 -17 -24 -13 -9 -30 0 -90 50 -40 33 -119 90 -175 127 -80 53
-103 72 -103 90 0 22 7 36 18 36 3 0 56 -34 117 -75z m-3965 -105 c0 -6 -185
-122 -210 -132 -9 -3 -23 -2 -31 2 -20 13 26 58 126 125 l80 54 17 -22 c10
-12 18 -24 18 -27z m3928 -45 c125 -96 79 -119 -58 -30 -47 30 -88 55 -92 55
-9 0 -10 32 -2 54 5 14 11 13 45 -6 22 -12 69 -45 107 -73z m-3220 -20 c171
-72 162 -320 -14 -371 -95 -27 -192 13 -235 98 -30 58 -24 150 13 205 48 73
152 103 236 68z m2534 -14 c73 -50 107 -139 83 -216 -29 -97 -98 -149 -195
-149 -202 2 -270 263 -95 366 43 25 58 29 111 26 44 -3 71 -10 96 -27z m-2954
-278 l3 -73 -721 0 -720 0 -1 -362 c0 -200 -4 -383 -7 -406 l-7 -44 -24 26
c-14 14 -28 26 -32 26 -15 0 -139 -165 -150 -199 -6 -20 -12 -42 -15 -49 -3
-9 -13 -8 -44 8 -22 11 -40 25 -40 31 0 15 90 147 152 224 l48 60 0 417 0 418
778 -2 777 -3 3 -72z m4732 -329 l0 -406 68 -92 c75 -101 123 -170 140 -203
11 -19 8 -23 -20 -37 -39 -20 -35 -21 -53 13 -8 17 -49 75 -91 131 l-76 100
-36 -35 c-26 -25 -38 -31 -44 -22 -4 6 -8 191 -8 410 l0 397 -705 0 -705 0 0
75 0 75 765 0 765 0 0 -406z m-4843 106 l793 0 0 -125 0 -125 -65 0 -65 0 -1
40 c-1 22 -2 45 -3 52 -1 9 -205 12 -868 12 l-868 1 -2 -650 c-3 -657 -4 -785
-7 -930 l-1 -80 -55 3 -55 4 0 897 c0 494 3 901 8 906 4 4 94 5 201 1 107 -3
551 -6 988 -6z m4501 1 l62 -1 0 -889 c0 -489 -2 -895 -5 -903 -4 -9 -21 -12
-59 -10 l-55 4 -7 54 c-3 30 -3 79 1 110 4 31 3 378 -1 773 l-7 716 -833 3
-833 4 -3 -54 -3 -53 -62 -3 -63 -3 0 125 0 126 628 2 c551 3 1044 2 1240 -1z
m-6065 -439 c15 -16 13 -23 -32 -92 -27 -41 -87 -138 -134 -214 l-86 -140 38
-23 c41 -24 65 -69 50 -95 -6 -11 8 -30 51 -73 l60 -59 0 -143 c0 -82 -4 -144
-10 -148 -5 -3 -19 -1 -30 5 -18 10 -20 21 -20 135 l0 124 -85 78 c-109 100
-129 130 -117 177 19 66 270 486 291 486 4 0 15 -8 24 -18z m1342 -88 c383
-253 837 -548 1305 -847 129 -83 280 -180 335 -216 269 -175 298 -191 320
-177 18 13 106 70 550 356 389 251 904 587 1312 857 l203 133 110 0 110 0 0
-1850 c0 -1018 -4 -1850 -8 -1850 -4 0 -6 -66 -4 -146 3 -137 2 -145 -14 -130
-9 10 -23 15 -30 12 -8 -3 -11 0 -7 10 4 10 -2 14 -21 14 -14 0 -26 -4 -26 -9
0 -5 -10 -11 -22 -14 -23 -6 -23 -6 -3 9 20 15 20 15 -1 32 -11 10 -19 22 -17
28 5 16 -23 38 -32 24 -14 -23 -25 -8 -25 35 0 34 4 45 15 45 12 0 14 -7 10
-27 l-6 -28 17 26 c15 23 22 25 64 21 26 -2 50 0 53 5 4 6 -5 9 -21 7 -15 -2
-19 -1 -9 2 21 7 21 20 3 56 -15 28 -15 28 17 24 29 -3 32 -7 38 -47 6 -39 6
-37 6 18 -1 34 -5 57 -9 50 -7 -11 -12 -2 -9 16 1 5 -3 6 -8 3 -9 -6 -26 22
-23 36 1 5 -4 7 -11 5 -6 -1 -11 4 -9 12 3 12 0 12 -12 2 -18 -15 -32 3 -27
38 1 13 -3 28 -11 32 -7 5 -8 9 -3 9 7 0 10 148 8 443 -1 243 -3 493 -3 555 0
86 -3 113 -12 110 -15 -5 -17 -37 -4 -55 5 -8 5 -13 -1 -13 -4 0 -8 -25 -8
-55 1 -30 -2 -55 -7 -55 -4 0 -5 -7 -2 -15 4 -8 2 -15 -4 -15 -6 0 -13 6 -15
13 -3 6 -4 -1 -2 -17 1 -16 8 -34 16 -40 22 -17 16 -49 -11 -64 l-25 -14 28 6
c20 5 27 3 27 -9 0 -8 -6 -15 -12 -15 -10 0 -9 -3 1 -9 11 -7 9 -10 -8 -16
-27 -8 -28 -25 -1 -18 11 3 20 1 20 -5 0 -22 -13 -42 -26 -42 -8 0 -14 -4 -14
-9 0 -5 9 -7 20 -4 11 3 20 1 20 -5 0 -5 -9 -12 -20 -15 -11 -3 -20 -11 -20
-17 0 -10 3 -10 14 -1 10 8 16 9 21 1 3 -5 -4 -14 -17 -19 -21 -9 -21 -10 -3
-10 16 -1 21 -8 23 -32 1 -17 -2 -28 -7 -25 -5 4 -12 2 -16 -4 -3 -5 0 -10 8
-10 7 0 14 -7 14 -15 0 -10 -7 -13 -22 -9 -16 4 -24 0 -29 -13 -5 -13 -4 -15
4 -7 7 7 20 10 30 7 26 -7 11 -59 -16 -55 -16 2 -17 1 -4 -8 12 -9 12 -13 2
-17 -10 -4 -7 -10 10 -22 14 -10 23 -26 23 -43 1 -30 -12 -37 -21 -13 -4 8
-10 15 -15 15 -11 0 1 -33 15 -42 7 -5 7 -8 -1 -8 -7 0 -13 -5 -13 -11 0 -5 4
-8 8 -5 4 2 14 1 22 -4 11 -7 7 -10 -13 -15 -15 -4 -27 -11 -27 -17 0 -5 3 -7
8 -5 4 3 16 1 27 -4 19 -8 19 -8 -3 -15 -14 -4 -21 -12 -18 -20 3 -8 0 -14 -6
-14 -9 0 -9 -3 0 -12 10 -10 15 -10 22 2 8 13 10 12 10 -3 0 -11 -9 -21 -19
-24 -15 -4 -19 -12 -16 -41 1 -21 -2 -40 -9 -44 -8 -6 -7 -8 2 -8 7 0 11 -4 7
-9 -3 -5 -1 -12 5 -16 5 -3 10 -1 10 4 0 6 4 11 10 11 5 0 7 -7 4 -15 -4 -8
-1 -15 5 -15 6 0 11 -7 11 -15 0 -8 -5 -15 -11 -15 -5 0 -7 5 -3 11 8 14 -38
1 -47 -13 -4 -7 -9 -6 -13 0 -4 6 -13 9 -21 6 -9 -4 -18 1 -21 11 -5 13 -9 14
-15 3 -18 -27 -8 9 12 46 11 21 17 41 14 44 -3 3 -8 -4 -11 -15 -5 -18 -9 -20
-24 -10 -15 9 -17 15 -8 31 11 21 11 21 -10 2 -12 -10 -19 -23 -15 -29 3 -6 1
-7 -5 -3 -7 4 -12 14 -12 22 0 8 -5 14 -11 14 -6 0 -9 7 -6 15 4 8 1 17 -5 21
-7 5 -8 2 -3 -5 5 -9 2 -12 -11 -9 -11 2 -18 7 -16 11 1 4 -3 14 -10 21 -9 10
-15 11 -20 2 -11 -17 -48 -16 -48 2 0 11 3 12 14 3 8 -7 17 -8 19 -4 3 5 -11
20 -31 33 -20 14 -46 34 -57 46 -11 12 -33 25 -50 31 l-30 10 -3 1129 c-2 620
-5 1130 -7 1133 -3 2 -60 -31 -127 -74 -221 -141 -330 -210 -553 -352 -121
-77 -286 -182 -367 -233 l-148 -94 -1 -726 c0 -414 -4 -716 -9 -705 -7 17 -9
17 -9 3 -1 -10 -3 -18 -5 -18 -2 0 -13 -3 -23 -6 -17 -5 -16 -4 1 10 11 9 17
19 13 22 -11 11 -37 -24 -43 -58 -11 -68 -15 -78 -27 -78 -6 0 -52 -30 -100
-66 -67 -50 -86 -69 -75 -76 10 -7 9 -8 -5 -4 -12 4 -48 -17 -113 -65 l-94
-70 -65 51 c-38 30 -69 48 -76 44 -7 -4 -9 -3 -6 3 10 16 -18 34 -39 27 -12
-4 -15 -3 -7 3 19 13 -159 149 -179 137 -7 -4 -8 -2 -4 4 3 6 -3 16 -14 22
-15 8 -19 17 -14 38 5 26 5 26 -10 8 -11 -13 -16 -15 -16 -6 0 7 7 21 16 31
14 16 13 19 -12 42 -23 21 -29 23 -41 12 -19 -20 -16 -27 9 -19 19 6 20 5 7
-8 -10 -11 -15 -48 -17 -147 -2 -82 0 -131 6 -127 5 3 17 -3 27 -14 10 -11 15
-20 10 -20 -4 0 -13 7 -20 16 -10 15 -13 15 -28 -1 -16 -15 -17 9 -17 384 0
314 3 401 13 402 10 0 10 2 0 6 -10 4 -13 110 -13 481 l-1 477 -72 43 c-82 49
-97 58 -377 235 -327 207 -537 341 -652 415 l-108 69 0 -433 0 -434 395 0 395
0 0 -320 0 -320 -397 -2 -398 -3 -3 -379 c-2 -344 -4 -381 -20 -393 -16 -14
-16 -14 1 -9 12 4 17 0 17 -15 0 -19 -1 -19 -16 -5 -18 18 -24 19 -43 7 -8 -5
-10 -14 -6 -21 5 -8 4 -11 -2 -7 -6 4 -21 -2 -34 -14 -12 -11 -28 -17 -35 -15
-9 3 -11 -1 -7 -11 4 -11 2 -14 -5 -9 -7 4 -12 2 -12 -3 0 -6 5 -11 12 -11 6
0 8 -3 5 -6 -4 -4 -14 -1 -24 7 -15 12 -16 12 -10 -3 4 -11 2 -15 -6 -13 -7 3
-21 -2 -32 -11 -16 -12 -17 -16 -6 -23 8 -5 9 -11 3 -15 -6 -3 -12 -1 -14 5
-5 15 -38 -1 -38 -19 0 -13 3 -12 15 4 8 10 15 14 15 7 0 -16 -20 -27 -50 -28
-26 -1 -83 -43 -75 -55 3 -4 -3 -14 -13 -21 -15 -12 -16 -12 -5 2 18 23 3 32
-19 12 -10 -9 -21 -13 -25 -10 -3 4 -12 -1 -19 -11 -12 -15 -12 -15 -7 6 4 16
11 22 23 19 16 -4 19 8 10 33 -1 3 -2 9 -1 14 1 4 -4 16 -11 25 -11 14 -11 14
3 4 12 -10 18 -9 32 8 15 17 15 20 2 25 -8 4 -15 13 -15 22 0 15 -14 8 -16 -9
-1 -5 -2 -13 -3 -19 0 -5 -6 -10 -12 -10 -6 0 -7 5 -2 13 11 18 15 49 5 43
-13 -8 -11 28 2 36 8 5 7 11 -1 19 -9 9 -9 18 -2 31 8 14 7 24 -3 36 -8 9 -8
13 -1 9 7 -4 13 0 16 10 3 10 5 3 6 -16 1 -40 6 -38 14 7 6 27 4 32 -13 32
-13 0 -18 5 -14 15 4 8 1 15 -6 15 -7 0 -6 5 4 15 20 21 29 19 23 -5 -3 -13 1
-21 15 -26 11 -3 22 -3 25 0 4 3 -2 6 -11 6 -13 0 -17 6 -14 18 5 18 -15 45
-26 35 -14 -14 -5 41 13 77 11 22 15 40 11 40 -5 0 -13 -12 -18 -27 -6 -16
-11 -22 -11 -15 -1 8 -6 10 -13 6 -9 -5 -9 -2 1 9 11 14 11 20 0 34 -10 11
-10 14 -1 9 7 -4 12 -2 12 4 0 6 5 8 10 5 6 -3 10 -1 10 4 0 6 -4 11 -10 11
-6 0 -6 10 1 27 7 20 6 28 -3 35 -9 5 -9 8 -1 8 12 0 12 37 -1 58 -4 7 -3 12
2 12 12 0 10 43 -3 53 -6 6 -6 10 2 14 10 3 10 10 2 24 -7 15 -7 24 1 34 8 9
8 15 0 20 -6 3 -7 12 -3 18 10 17 11 47 1 47 -5 0 -6 6 -1 12 10 17 11 88 2
82 -9 -5 -4 30 6 46 3 6 -3 10 -14 10 -12 0 -21 4 -21 10 0 5 7 7 15 4 8 -4
15 -1 15 5 0 6 -8 11 -17 11 -9 0 -13 3 -9 8 4 4 12 7 17 7 5 0 9 3 9 8 0 4
-3 7 -6 6 -21 -3 -33 74 -14 86 6 3 10 -3 10 -15 0 -12 4 -19 8 -16 5 3 8 15
6 28 -1 13 -3 29 -3 36 -1 6 -4 11 -8 10 -5 -2 -8 2 -8 7 0 6 3 9 8 7 4 -1 7
5 7 13 0 9 -6 12 -17 9 -17 -5 -17 -5 0 9 20 17 22 28 4 21 -8 -3 -14 2 -14
11 0 9 6 14 14 11 17 -7 17 11 1 17 -10 4 -9 8 2 16 13 9 13 11 -2 11 -10 0
-18 7 -18 16 0 8 4 13 9 9 5 -3 12 -2 15 3 2 4 -4 8 -14 9 -23 2 -23 -7 -29
-772 -6 -793 -4 -730 -21 -731 -35 -2 -41 -5 -35 -14 3 -5 0 -10 -7 -10 -10 0
-9 -3 1 -9 12 -8 12 -12 2 -24 -8 -10 -9 -17 -1 -22 5 -3 10 -26 10 -51 l0
-44 39 0 c22 0 42 6 45 13 3 6 3 2 0 -10 -4 -16 -1 -23 10 -23 8 0 20 -9 26
-21 11 -19 10 -20 -10 -9 -28 15 -40 4 -15 -13 16 -13 17 -14 1 -20 -11 -5
-15 -3 -10 5 5 7 3 8 -6 3 -10 -6 -8 -12 9 -27 13 -10 19 -18 14 -18 -5 0 -14
5 -20 11 -14 14 -46 -18 -39 -38 3 -8 1 -11 -4 -8 -6 3 -10 14 -10 23 0 14 -2
14 -9 3 -7 -11 -10 -10 -14 5 -3 14 -5 12 -6 -7 -1 -22 -5 -26 -26 -24 -13 2
-29 -3 -36 -11 -10 -12 -8 -13 14 -5 17 7 28 7 32 1 11 -18 -7 -32 -34 -26
-17 5 -21 4 -12 -2 9 -7 10 -12 2 -16 -14 -9 -14 -26 0 -26 5 0 8 4 5 8 -2 4
4 9 15 9 27 2 24 -4 -9 -21 l-29 -15 -7 277 c-3 152 -6 1066 -6 2030 l1 1752
112 0 112 0 160 -106z m5277 33 c110 -171 222 -375 233 -425 8 -39 -8 -68 -64
-116 -20 -17 -60 -53 -88 -80 l-53 -49 0 -127 0 -128 -30 -4 -30 -5 0 142 0
141 65 64 c43 42 61 68 55 74 -19 19 -10 42 30 81 22 21 40 35 40 30 0 -4 3
-6 6 -2 7 7 -38 89 -112 202 -142 218 -160 257 -131 268 25 11 33 4 79 -66z
m-1737 -61 c-16 -13 -59 -42 -93 -63 -35 -21 -93 -58 -129 -81 -36 -24 -63
-37 -60 -29 4 11 -1 14 -19 13 -20 -1 -24 -5 -20 -22 4 -14 -1 -27 -11 -35
-10 -8 -14 -9 -10 -2 10 17 -13 28 -25 12 -7 -11 -8 -9 -6 6 2 11 8 20 15 20
6 0 15 3 19 8 4 4 -2 7 -12 7 -11 0 -25 5 -32 12 -9 9 -12 9 -12 0 0 -7 6 -12
13 -12 8 0 7 -4 -3 -10 -11 -7 -19 -5 -28 8 -10 14 -14 14 -21 3 -5 -7 -14
-10 -21 -6 -15 9 19 48 37 41 7 -3 15 -1 18 4 3 4 -7 7 -21 5 -14 -1 -30 -8
-34 -15 -6 -9 -11 -8 -19 6 -9 15 -9 13 -4 -15 4 -25 3 -32 -5 -27 -7 4 -12 1
-12 -8 0 -9 5 -16 10 -16 6 0 10 -12 10 -26 0 -22 2 -25 15 -14 12 10 15 10
15 -4 0 -11 -9 -16 -26 -16 -20 0 -25 4 -20 16 8 21 -24 68 -37 55 -7 -7 -7
-14 0 -23 20 -26 23 -48 7 -48 -11 0 -15 6 -11 20 3 11 1 20 -4 20 -5 0 -9 7
-9 16 0 9 -6 14 -12 11 -7 -2 -12 -13 -11 -23 1 -10 0 -13 -3 -6 -3 6 -14 12
-25 12 -12 0 -19 7 -19 20 0 11 5 20 11 20 5 0 7 -4 4 -10 -3 -5 -1 -10 4 -10
14 0 14 27 1 35 -6 4 -17 2 -24 -4 -7 -6 -21 -8 -31 -5 -13 5 -16 3 -13 -7 3
-8 10 -13 16 -12 13 3 24 -25 12 -32 -5 -3 -11 -1 -15 5 -3 5 -11 10 -16 10
-6 0 -8 -4 -5 -9 3 -5 -5 -8 -19 -7 -14 0 -25 4 -25 9 0 4 -5 7 -11 7 -5 0 -7
-4 -4 -10 9 -14 -8 -13 -23 2 -9 9 -12 9 -12 0 0 -7 -4 -12 -10 -12 -5 0 -10
6 -10 14 0 11 21 23 52 30 3 0 9 4 12 9 3 4 3 5 -1 2 -3 -3 -12 0 -20 6 -10 9
-13 8 -13 0 0 -8 -8 -10 -20 -6 -13 4 -20 2 -20 -7 0 -10 -3 -9 -10 2 -9 13
-11 13 -20 0 -8 -13 -10 -12 -10 3 0 9 -4 17 -10 17 -5 0 -10 -4 -10 -10 0
-12 -43 -8 -52 5 -5 6 -8 5 -8 -3 0 -9 -7 -11 -20 -7 -17 5 -20 2 -20 -24 0
-16 -4 -33 -10 -36 -5 -3 -10 1 -10 9 0 20 -10 20 -25 0 -10 -15 -13 -15 -28
1 -19 19 -22 35 -7 35 6 0 15 -10 20 -22 l9 -23 0 22 c1 12 4 30 7 40 6 14 4
16 -6 6 -7 -6 -19 -9 -26 -6 -9 3 -16 -5 -20 -25 -5 -23 -11 -29 -30 -29 -31
0 -31 15 1 27 25 10 32 24 16 34 -5 3 -11 -1 -15 -9 -4 -10 -14 -13 -34 -9
-26 5 -30 3 -35 -24 -5 -25 -10 -29 -31 -25 -29 6 -36 26 -8 21 12 -2 18 5 20
26 2 18 0 26 -7 21 -6 -3 -11 -12 -11 -20 0 -8 -7 -11 -20 -8 -22 6 -26 19 -8
25 9 3 10 11 2 28 -7 16 -13 20 -18 12 -4 -7 -2 -12 3 -12 6 0 11 -4 11 -10 0
-5 -7 -10 -15 -10 -8 0 -15 4 -15 10 0 5 -7 7 -15 4 -8 -4 -15 -15 -15 -27 0
-11 -3 -17 -7 -14 -3 4 -12 2 -19 -4 -8 -7 -14 -7 -19 1 -5 8 -14 6 -31 -5
-14 -9 -29 -13 -34 -10 -6 3 -10 2 -10 -3 0 -17 38 -21 45 -4 7 19 20 6 29
-30 4 -17 2 -28 -4 -28 -5 0 -10 9 -10 20 0 11 -5 20 -11 20 -6 0 -9 -9 -6
-20 3 -11 2 -20 -3 -20 -4 0 -10 9 -13 20 -3 13 -11 18 -20 14 -9 -3 -16 3
-20 16 -3 14 -10 19 -17 15 -7 -4 -8 -10 -3 -14 11 -7 12 -51 1 -51 -4 0 -8 9
-8 20 0 28 -20 25 -21 -2 -1 -18 -3 -17 -9 7 -7 29 -9 28 -23 -15 -3 -9 -6 -5
-6 9 -1 16 -5 21 -15 18 -11 -4 -14 2 -14 24 1 17 6 29 15 29 7 0 13 5 13 10
0 6 -4 10 -10 10 -12 0 -42 -44 -38 -56 2 -5 -1 -9 -7 -9 -5 0 -9 6 -9 12 1 7
-2 10 -7 7 -5 -3 -9 -12 -9 -21 0 -13 -3 -13 -15 -3 -8 7 -15 9 -15 5 0 -4 -7
-2 -15 5 -12 10 -15 9 -15 -4 0 -10 -4 -14 -10 -11 -5 3 -10 12 -10 19 0 17
48 27 54 12 3 -7 8 -6 15 4 16 23 14 27 -19 27 -16 0 -30 -4 -30 -9 0 -5 -9
-6 -20 -3 -18 6 -20 3 -14 -19 6 -25 5 -26 -35 -24 -25 1 -40 6 -38 12 2 6 11
10 20 10 9 -1 15 6 14 17 -1 12 -5 15 -13 8 -6 -5 -22 -8 -34 -7 -13 2 -25 -3
-28 -11 -3 -10 0 -12 12 -8 10 4 16 1 16 -8 0 -10 -8 -14 -22 -11 -19 2 -22 8
-20 36 2 19 0 30 -6 26 -5 -3 -9 -17 -9 -31 0 -32 -11 -44 -24 -25 -5 10 -12
11 -16 5 -14 -18 -48 -11 -48 9 0 11 -6 21 -13 24 -12 4 -17 32 -6 32 4 0 18
-12 31 -27 20 -21 27 -23 34 -12 8 12 11 12 19 -1 8 -11 9 -8 4 13 -4 17 -2
27 6 27 6 0 8 5 5 10 -10 16 -25 11 -25 -8 0 -28 -10 -32 -37 -15 -16 11 -20
18 -13 23 9 5 9 9 1 14 -6 4 -11 4 -11 -1 0 -4 -16 -8 -37 -8 -23 0 -38 -5
-41 -15 -5 -13 -3 -13 12 -1 20 17 26 12 26 -20 1 -52 -3 -58 -33 -57 -26 1
-28 4 -23 29 4 21 1 28 -14 32 -11 3 -23 1 -26 -5 -4 -6 -10 -5 -15 3 -7 11
-9 11 -9 1 0 -9 -7 -11 -19 -7 -20 6 -34 -15 -25 -39 3 -8 1 -17 -5 -21 -6 -3
-11 2 -11 12 0 11 -7 28 -16 39 -15 19 -15 19 -11 -1 3 -11 6 -26 8 -34 2 -7
-2 -16 -10 -18 -9 -4 -11 0 -6 16 5 15 2 21 -9 21 -9 0 -16 8 -16 18 0 13 -2
14 -9 3 -6 -8 -19 -12 -35 -9 -15 3 -29 1 -33 -5 -4 -6 -11 -3 -19 7 -11 15
-12 14 -10 -8 0 -13 4 -22 8 -19 21 13 48 11 48 -4 0 -9 -6 -13 -14 -10 -8 3
-17 3 -20 -1 -4 -3 -16 -6 -27 -7 -17 -1 -19 2 -14 22 4 17 2 22 -5 18 -6 -4
-17 -1 -25 5 -11 9 -15 9 -15 1 0 -6 -7 -11 -16 -11 -14 0 -14 3 -4 15 10 12
10 15 -4 15 -9 0 -16 -7 -16 -15 0 -20 -17 -19 -30 3 -10 15 -10 15 -8 -3 2
-12 12 -21 26 -23 12 -2 22 -8 22 -13 0 -9 -22 -13 -49 -9 -9 1 -12 -5 -8 -19
5 -19 1 -21 -34 -21 -21 0 -39 4 -39 10 0 5 7 7 15 4 8 -4 15 -1 15 5 0 6 -7
11 -16 11 -11 0 -14 6 -9 21 5 16 3 20 -6 17 -8 -3 -14 -18 -14 -36 1 -27 -3
-32 -22 -32 -13 0 -23 4 -23 10 0 5 7 7 16 3 11 -4 15 -2 13 6 -3 7 -9 12 -14
11 -6 -1 -12 9 -15 22 -3 13 -12 23 -20 23 -9 0 -14 8 -12 19 2 10 -2 16 -8
14 -6 -2 -11 -7 -11 -11 1 -4 1 -16 1 -28 0 -15 5 -19 15 -15 9 3 15 0 15 -8
0 -7 -10 -12 -22 -11 -13 2 -22 8 -20 14 1 6 -4 14 -12 17 -8 3 -12 13 -9 25
3 10 0 19 -6 19 -14 0 -14 -37 0 -46 6 -3 8 -17 5 -29 -5 -19 -1 -24 16 -28
13 -2 2 -5 -24 -6 -37 -1 -48 3 -48 14 0 18 16 20 23 3 4 -10 8 -9 16 2 8 11
7 16 -5 18 -10 3 -14 11 -11 22 4 15 -2 19 -34 22 -37 3 -43 -1 -40 -29 1 -7
-3 -13 -9 -13 -5 0 -10 -7 -10 -16 0 -12 6 -15 24 -10 14 3 28 2 31 -4 4 -6
-9 -10 -33 -10 -36 0 -39 2 -36 25 1 14 7 32 14 40 7 8 7 15 1 19 -5 4 -12 2
-15 -3 -7 -11 -46 -3 -46 10 0 4 5 11 10 14 6 3 10 10 10 15 0 5 -11 -2 -25
-16 -29 -29 -31 -36 -8 -27 11 4 14 3 9 -6 -4 -6 -4 -11 1 -10 22 4 43 -2 43
-12 0 -7 -9 -9 -22 -5 -69 19 -71 19 -63 6 6 -9 4 -11 -6 -5 -20 13 -113 78
-119 85 -3 3 -22 14 -43 24 -20 11 -72 43 -114 73 l-77 53 1640 0 1639 0 -30
-24z m-1240 -176 c-5 -8 -11 -8 -17 -2 -6 6 -7 16 -3 22 5 8 11 8 17 2 6 -6 7
-16 3 -22z m-775 -23 c-1 -22 -1 -22 -15 -3 -13 17 -15 18 -15 3 0 -19 -20
-24 -20 -4 0 6 -8 3 -16 -8 -15 -20 -16 -20 -12 4 2 17 11 25 27 28 14 2 27 5
29 8 10 9 22 -7 22 -28z m1086 -14 c-11 -11 -19 6 -11 24 8 17 8 17 12 0 3
-10 2 -21 -1 -24z m44 29 c0 -4 20 -6 45 -4 36 3 45 1 45 -12 0 -9 -4 -16 -10
-16 -5 0 -10 6 -10 13 0 8 -3 8 -8 1 -7 -11 -77 -12 -88 -2 -3 4 -3 11 1 17 7
13 25 15 25 3z m460 -12 c0 -11 -7 -20 -15 -20 -27 0 -18 30 13 39 1 1 2 -8 2
-19z m-2290 -11 c0 -5 -7 -9 -15 -9 -15 0 -20 12 -9 23 8 8 24 -1 24 -14z
m537 5 c2 -7 -7 -11 -22 -11 -25 0 -31 7 -18 21 10 10 36 3 40 -10z m263 1 c0
-8 -4 -15 -10 -15 -5 0 -10 7 -10 15 0 8 5 15 10 15 6 0 10 -7 10 -15z m700
-13 c0 -12 -3 -13 -11 -5 -6 6 -18 9 -25 6 -8 -3 -14 0 -14 5 0 11 30 21 43
15 4 -2 7 -12 7 -21z m104 13 c-4 -8 -10 -15 -15 -15 -5 0 -9 7 -9 15 0 8 7
15 15 15 9 0 12 -6 9 -15z m-1244 -11 c0 -8 -5 -12 -10 -9 -6 4 -8 11 -5 16 9
14 15 11 15 -7z m30 0 c0 -8 -4 -12 -10 -9 -5 3 -10 10 -10 16 0 5 5 9 10 9 6
0 10 -7 10 -16z m1044 -11 c-6 -22 -4 -25 9 -20 9 3 19 2 22 -3 4 -6 -6 -10
-22 -10 -24 0 -28 4 -29 30 -1 19 4 30 13 30 10 0 12 -7 7 -27z m896 12 c0 -8
7 -15 15 -15 8 0 15 -5 15 -11 0 -6 -7 -8 -17 -5 -9 4 -20 1 -24 -6 -5 -7 -7
1 -7 20 1 31 18 47 18 17z m-2447 -21 c9 -4 17 -10 17 -15 0 -15 -16 -10 -41
12 -13 12 -17 19 -9 15 8 -3 23 -9 33 -12z m973 -21 c-10 -10 -19 5 -10 18 6
11 8 11 12 0 2 -7 1 -15 -2 -18z m64 12 c0 -9 -9 -15 -25 -15 -14 0 -25 5 -25
11 0 6 7 9 15 6 8 -4 17 -2 20 3 9 14 15 12 15 -5z m53 1 c10 3 17 1 17 -5 0
-6 -13 -11 -30 -11 -23 0 -28 4 -23 16 4 10 8 12 13 4 3 -6 14 -8 23 -4z m691
-1 c-6 -16 -24 -21 -24 -7 0 11 11 22 21 22 5 0 6 -7 3 -15z m436 0 c0 -8 -9
-15 -20 -15 -11 0 -20 5 -20 11 0 5 4 8 9 4 5 -3 12 -1 16 5 9 14 15 12 15 -5z
m40 -6 c0 -5 -7 -9 -15 -9 -9 0 -12 6 -9 15 6 15 24 11 24 -6z m26 -6 c-10
-10 -19 5 -10 18 6 11 8 11 12 0 2 -7 1 -15 -2 -18z m134 12 c0 -8 -4 -15 -10
-15 -5 0 -10 7 -10 15 0 8 5 15 10 15 6 0 10 -7 10 -15z m-2175 -5 c3 -5 -1
-10 -10 -10 -9 0 -13 5 -10 10 3 6 8 10 10 10 2 0 7 -4 10 -10z m205 -2 c0 -4
-9 -8 -20 -8 -11 0 -20 4 -20 9 0 6 9 9 20 8 11 -1 20 -5 20 -9z m56 -1 c4 -4
-5 -7 -20 -7 -15 0 -25 4 -22 9 7 10 31 9 42 -2z m59 3 c3 -5 -1 -10 -10 -10
-9 0 -13 5 -10 10 3 6 8 10 10 10 2 0 7 -4 10 -10z m30 0 c3 -5 1 -10 -4 -10
-6 0 -11 5 -11 10 0 6 2 10 4 10 3 0 8 -4 11 -10z m30 0 c3 -5 1 -10 -4 -10
-6 0 -11 5 -11 10 0 6 2 10 4 10 3 0 8 -4 11 -10z m35 0 c0 -5 -4 -10 -10 -10
-5 0 -10 5 -10 10 0 6 5 10 10 10 6 0 10 -4 10 -10z m60 0 c0 -5 -4 -10 -10
-10 -5 0 -10 5 -10 10 0 6 5 10 10 10 6 0 10 -4 10 -10z m30 0 c0 -5 -5 -10
-11 -10 -5 0 -7 5 -4 10 3 6 8 10 11 10 2 0 4 -4 4 -10z m35 0 c3 -5 1 -10 -4
-10 -6 0 -11 5 -11 10 0 6 2 10 4 10 3 0 8 -4 11 -10z m65 -2 c0 -5 -11 -8
-25 -8 -14 0 -25 4 -25 9 0 5 11 8 25 7 14 0 25 -4 25 -8z m40 2 c0 -5 -7 -10
-15 -10 -8 0 -15 5 -15 10 0 6 7 10 15 10 8 0 15 -4 15 -10z m30 0 c0 -5 -4
-10 -10 -10 -5 0 -10 5 -10 10 0 6 5 10 10 10 6 0 10 -4 10 -10z m30 0 c0 -5
-4 -10 -10 -10 -5 0 -10 5 -10 10 0 6 5 10 10 10 6 0 10 -4 10 -10z m220 -1
c0 -5 -11 -9 -25 -9 -14 0 -25 4 -25 9 0 5 11 9 25 9 14 0 25 -4 25 -9z m30 1
c0 -5 -4 -10 -10 -10 -5 0 -10 5 -10 10 0 6 5 10 10 10 6 0 10 -4 10 -10z m30
0 c0 -5 -4 -10 -10 -10 -5 0 -10 5 -10 10 0 6 5 10 10 10 6 0 10 -4 10 -10z
m30 0 c0 -5 -5 -10 -11 -10 -5 0 -7 5 -4 10 3 6 8 10 11 10 2 0 4 -4 4 -10z
m35 0 c3 -5 -1 -10 -10 -10 -9 0 -13 5 -10 10 3 6 8 10 10 10 2 0 7 -4 10 -10z
m30 0 c3 -5 1 -10 -4 -10 -6 0 -11 5 -11 10 0 6 2 10 4 10 3 0 8 -4 11 -10z
m125 0 c0 -5 -5 -10 -11 -10 -5 0 -7 5 -4 10 3 6 8 10 11 10 2 0 4 -4 4 -10z
m170 0 c0 -5 -4 -10 -10 -10 -5 0 -10 5 -10 10 0 6 5 10 10 10 6 0 10 -4 10
-10z m30 0 c0 -5 -4 -10 -10 -10 -5 0 -10 5 -10 10 0 6 5 10 10 10 6 0 10 -4
10 -10z m30 0 c0 -5 -4 -10 -10 -10 -5 0 -10 5 -10 10 0 6 5 10 10 10 6 0 10
-4 10 -10z m40 0 c0 -5 -4 -10 -10 -10 -5 0 -10 5 -10 10 0 6 5 10 10 10 6 0
10 -4 10 -10z m190 0 c0 -5 -4 -10 -10 -10 -5 0 -10 5 -10 10 0 6 5 10 10 10
6 0 10 -4 10 -10z m30 0 c0 -5 -4 -10 -10 -10 -5 0 -10 5 -10 10 0 6 5 10 10
10 6 0 10 -4 10 -10z m30 0 c0 -5 -4 -10 -10 -10 -5 0 -10 5 -10 10 0 6 5 10
10 10 6 0 10 -4 10 -10z m35 0 c3 -5 -1 -10 -9 -10 -9 0 -16 5 -16 10 0 6 4
10 9 10 6 0 13 -4 16 -10z m35 0 c0 -5 -4 -10 -10 -10 -5 0 -10 5 -10 10 0 6
5 10 10 10 6 0 10 -4 10 -10z m30 0 c0 -5 -4 -10 -10 -10 -5 0 -10 5 -10 10 0
6 5 10 10 10 6 0 10 -4 10 -10z m40 0 c0 -5 -7 -10 -16 -10 -8 0 -12 5 -9 10
3 6 10 10 16 10 5 0 9 -4 9 -10z m50 0 c0 -5 -4 -10 -10 -10 -5 0 -10 5 -10
10 0 6 5 10 10 10 6 0 10 -4 10 -10z m-283 -6 c-3 -3 -12 -4 -19 -1 -8 3 -5 6
6 6 11 1 17 -2 13 -5z m-3697 -549 l0 -445 -55 0 -55 0 0 445 0 445 55 0 55 0
0 -445z m6180 0 l0 -445 -60 0 -60 0 0 445 0 445 60 0 60 0 0 -445z m-2558
293 c0 -7 2 -32 3 -55 l1 -43 -593 0 -593 0 0 55 0 55 590 0 c464 0 590 -3
592 -12z m135 -36 c4 -38 1 -43 -22 -52 -56 -21 -95 -2 -95 47 0 35 27 53 74
50 38 -2 39 -3 43 -45z m-4363 -90 c204 -147 16 -481 -206 -366 -102 53 -138
180 -82 292 40 80 101 115 193 107 40 -3 65 -12 95 -33z m7484 22 c116 -48
164 -181 108 -301 -33 -70 -95 -108 -180 -108 -38 0 -61 5 -64 13 -2 7 -8 10
-12 7 -15 -9 -78 54 -101 101 -82 171 79 359 249 288z m-7178 -374 c36 -36 40
-66 40 -280 l0 -208 67 -61 c37 -34 71 -61 75 -61 5 0 8 10 8 23 0 21 3 22 53
17 l52 -5 5 -63 c3 -34 4 -67 2 -72 -2 -6 -25 -10 -50 -10 -45 0 -52 4 -151
90 l-105 90 -63 -61 c-57 -55 -83 -66 -83 -37 0 6 23 36 50 68 l50 58 0 180
c0 154 -2 183 -16 194 -51 41 -64 59 -64 87 0 60 87 94 130 51z m6785 -5 c40
-39 28 -84 -30 -123 l-35 -22 0 -178 0 -178 55 -64 c30 -35 55 -67 55 -71 0
-5 -8 -12 -17 -18 -14 -7 -30 3 -81 50 -42 38 -72 58 -86 56 -11 -1 -20 3 -19
9 9 48 12 116 12 300 1 198 2 213 22 238 28 36 89 37 124 1z m-7146 -185 c71
-20 123 -93 123 -171 -1 -100 -62 -169 -157 -177 -71 -6 -118 12 -159 60 -42
48 -54 107 -36 165 34 105 124 153 229 123z m7536 -9 c51 -23 92 -71 101 -117
23 -124 -56 -224 -177 -224 -137 1 -218 130 -160 255 43 93 142 129 236 86z
m-2302 -378 c4 -120 7 -606 7 -1081 l0 -863 -55 -51 -55 -50 0 -88 0 -89 -92
-83 c-51 -46 -119 -109 -150 -140 -61 -61 -86 -73 -124 -64 -22 6 -24 11 -24
64 l0 57 128 114 c70 62 133 123 139 135 8 12 13 58 13 108 l0 87 48 14 47 14
6 354 c4 195 7 577 8 849 0 272 4 593 8 713 l6 217 42 0 42 0 6 -217z m-4103
-13 l0 -50 -230 0 c-219 0 -230 1 -230 19 0 10 12 27 28 37 15 10 33 24 40 31
10 10 60 13 203 13 l189 0 0 -50z m5493 -3 l59 -52 -211 3 -211 3 0 49 0 50
153 0 152 0 58 -53z m217 -42 l0 -85 -60 0 -60 0 0 74 0 74 48 10 c26 5 53 10
60 11 9 1 12 -22 12 -84z m-6798 -46 c89 -19 158 -59 238 -138 l75 -74 273 -5
c310 -5 278 7 266 -99 l-7 -53 -263 0 -262 0 -7 30 c-3 16 -23 55 -44 87 -112
172 -300 249 -478 195 -127 -39 -238 -144 -280 -265 -27 -80 -25 -254 5 -329
27 -66 133 -187 188 -213 57 -27 192 -45 263 -35 120 17 235 91 316 205 l47
65 379 0 379 0 0 -59 0 -58 -41 -7 c-22 -4 -189 -6 -370 -6 l-330 1 -52 -51
c-62 -61 -187 -126 -272 -141 -116 -21 -255 8 -355 74 -246 162 -294 518 -98
732 115 126 270 178 430 144z m7531 -4 c32 -8 77 -25 100 -36 57 -30 168 -143
196 -202 71 -149 67 -327 -10 -460 -36 -60 -90 -130 -96 -124 -2 3 -17 -8 -34
-24 -81 -76 -260 -124 -380 -101 -90 17 -195 70 -270 138 l-65 58 -372 -3
-372 -3 0 35 c0 19 -3 49 -6 66 l-6 31 389 0 390 0 30 -43 c55 -77 145 -157
213 -190 63 -31 69 -32 195 -31 103 0 137 4 163 17 17 10 32 15 32 12 0 -3 9
4 20 15 12 12 25 18 31 15 5 -4 8 -2 7 2 -2 5 16 28 39 52 74 73 113 176 113
300 0 135 -37 227 -124 315 -174 173 -436 166 -607 -17 -39 -41 -99 -147 -99
-174 0 -11 -57 -13 -304 -13 -344 0 -311 -10 -315 93 l-2 57 313 0 313 0 24
35 c101 148 316 227 494 180z m-7483 -171 c64 -35 115 -90 149 -163 37 -80 37
-192 0 -272 -36 -76 -86 -129 -156 -165 -51 -25 -69 -29 -143 -29 -68 0 -94 5
-131 23 -70 34 -125 87 -156 150 -25 50 -28 68 -28 152 0 112 18 161 86 235
73 79 141 106 251 101 60 -3 88 -10 128 -32z m7518 7 c62 -32 124 -97 158
-167 25 -51 29 -70 29 -144 0 -72 -4 -93 -27 -141 -36 -71 -89 -125 -158 -158
-73 -34 -191 -36 -260 -3 -134 63 -201 165 -202 304 0 149 84 274 219 324 57
21 187 13 241 -15z m-3018 -255 c0 -206 -1 -215 -20 -221 -11 -3 -28 -4 -39 0
-23 7 -31 79 -31 288 l0 147 45 0 45 0 0 -214z m197 -231 c1 -137 -1 -244 -4
-236 -4 10 -7 10 -13 2 -4 -8 -17 -10 -33 -5 l-27 6 0 245 0 244 38 -3 37 -3
2 -250z m-219 -11 l22 -6 0 -690 0 -690 -27 -22 c-15 -11 -60 -49 -100 -84
l-73 -63 0 -201 0 -201 -42 -36 c-84 -70 -395 -351 -516 -465 l-124 -116 -210
196 c-116 107 -242 223 -282 256 -39 34 -98 86 -130 116 l-59 54 -2 117 c-1
64 -3 154 -4 201 l-3 85 -99 84 -99 83 0 332 c0 182 3 429 7 548 l6 216 35 7
c19 3 36 4 39 2 2 -3 7 -231 10 -507 6 -495 6 -501 27 -512 12 -6 67 -49 124
-95 l102 -85 0 -209 c0 -169 3 -209 13 -209 18 0 116 -85 346 -298 l184 -170
166 157 c172 162 345 311 361 311 6 0 10 82 10 210 l0 209 93 77 c50 43 107
86 125 97 l32 19 0 644 0 644 23 0 c12 0 32 -3 45 -6z m-2988 -128 c0 -3 -4
-8 -10 -11 -5 -3 -10 -1 -10 4 0 6 5 11 10 11 6 0 10 -2 10 -4z m4280 -55 c0
-6 -4 -13 -10 -16 -5 -3 -10 1 -10 9 0 9 5 16 10 16 6 0 10 -4 10 -9z m-1083
-69 c9 -6 13 -105 15 -399 l3 -392 28 -28 c15 -16 27 -32 27 -36 0 -4 -34 -7
-75 -7 l-75 0 0 435 0 435 33 0 c17 0 37 -4 44 -8z m-2485 -494 l3 -393 50
-17 50 -16 3 -102 3 -101 36 -32 c21 -18 82 -72 136 -122 l99 -90 -5 -58 c-3
-32 -7 -61 -10 -63 -2 -3 -23 -2 -46 2 -32 5 -45 13 -56 34 -8 15 -31 40 -52
56 -21 16 -80 67 -131 113 l-94 84 3 84 3 83 -52 53 -52 53 0 412 0 412 55 0
55 0 2 -392z m420 62 c1 -176 2 -344 3 -372 l0 -53 -72 -3 c-81 -3 -92 7 -48
46 l25 22 0 210 c0 161 3 210 13 211 10 0 10 2 0 6 -10 3 -13 39 -13 129 l0
124 45 0 45 0 2 -320z m-1802 207 l0 -93 -97 -69 c-54 -39 -112 -83 -130 -99
l-33 -28 0 -103 c0 -112 -2 -114 -67 -115 -23 0 -23 1 -23 139 l0 139 106 84
c58 45 114 87 125 92 16 8 19 19 19 78 l0 68 50 0 50 0 0 -93z m5664 26 c7
-66 8 -69 49 -95 23 -15 79 -56 125 -92 l82 -66 0 -135 0 -135 -45 0 -45 0 0
108 0 108 -140 103 -140 102 0 85 0 84 54 0 53 0 7 -67z m-5914 17 l0 -40
-143 0 -143 0 -45 -37 c-24 -20 -65 -56 -90 -80 -30 -29 -57 -46 -82 -50 -61
-9 -81 1 -104 56 -24 58 -63 83 -133 84 -55 1 -106 -27 -132 -71 -20 -34 -23
-106 -7 -149 6 -15 10 -30 9 -31 -1 -2 7 -10 17 -18 10 -7 13 -14 6 -14 -6 0
-15 5 -18 10 -4 6 -10 8 -15 5 -24 -15 -60 65 -60 133 0 100 100 201 201 202
57 0 123 -28 164 -70 22 -22 44 -40 50 -40 5 1 46 34 90 75 l80 74 178 1 177
0 0 -40z m6527 -35 c45 -41 84 -75 88 -75 4 0 30 20 57 45 81 73 164 83 253
31 93 -55 124 -171 72 -272 -32 -61 -78 -93 -83 -57 -1 7 4 17 12 24 11 9 18
8 31 -2 15 -13 15 -12 4 10 -7 13 -9 21 -4 18 10 -6 15 25 16 104 0 59 -30
104 -87 130 -52 24 -80 23 -133 -1 -32 -14 -47 -29 -59 -57 -27 -63 -30 -68
-49 -71 -46 -10 -86 11 -172 88 l-88 80 -162 0 c-99 0 -164 4 -168 10 -4 6 -4
24 0 40 l7 30 191 0 192 0 82 -75z m-1327 -195 c0 -5 -4 -10 -10 -10 -5 0 -10
5 -10 10 0 6 5 10 10 10 6 0 10 -4 10 -10z m-1660 -105 c0 -5 -4 -4 -9 4 -5 7
-14 10 -20 7 -6 -4 -11 -3 -11 3 0 5 6 11 13 14 12 4 27 -10 27 -28z m-928 0
c-2 -14 -6 -25 -8 -25 -2 0 -4 11 -4 25 0 14 4 25 9 25 4 0 6 -11 3 -25z
m-3366 -50 c41 -6 41 -6 59 -73 9 -37 30 -110 46 -162 36 -116 36 -119 2 -117
-25 2 -29 9 -50 77 -13 41 -32 110 -42 152 -23 91 -26 98 -52 98 -10 0 -19 5
-19 10 0 6 -6 10 -14 10 -8 0 -18 4 -21 10 -3 6 1 7 9 4 9 -4 16 -1 16 6 0 9
4 9 13 2 6 -5 31 -13 53 -17z m7661 9 c0 -9 -15 -23 -33 -30 -23 -10 -35 -23
-40 -42 -12 -58 -74 -269 -89 -305 -14 -34 -17 -36 -36 -25 -11 7 -18 20 -15
28 8 28 75 275 86 316 10 40 13 42 55 48 24 4 47 11 50 17 10 14 22 11 22 -7z
m-2133 -9 c-4 -8 -10 -15 -16 -15 -5 0 -6 -6 -2 -12 4 -8 2 -8 -7 1 -12 11
-12 14 0 18 11 5 11 7 0 14 -10 6 -8 9 8 9 16 0 21 -4 17 -15z m-4517 -620
l-2 -625 30 -26 c17 -14 140 -130 275 -258 135 -128 310 -294 390 -369 l145
-137 425 0 424 0 58 -60 c56 -58 71 -83 46 -78 -7 2 -12 -2 -11 -7 1 -6 -10
-12 -23 -13 -14 -1 -33 -6 -42 -11 -17 -9 -82 10 -82 24 0 3 5 3 10 0 15 -9
12 4 -4 20 -7 8 -16 12 -19 9 -3 -4 -16 1 -29 10 -20 14 -71 16 -412 16 l-389
0 -76 67 c-135 119 -302 273 -461 422 -85 81 -203 191 -262 245 l-108 99 0
649 0 648 59 0 59 0 -1 -625z m5635 -27 l3 -653 -25 -30 c-28 -34 -358 -353
-637 -617 l-188 -178 -390 0 -389 0 -48 -47 c-26 -26 -48 -42 -48 -35 0 13
-30 5 -43 -12 -6 -7 -7 -4 -3 6 3 10 1 20 -4 23 -6 4 -10 -2 -10 -12 0 -14 -5
-12 -23 11 -16 20 -29 27 -40 23 -35 -13 -15 21 42 76 l60 57 420 0 421 0 162
158 c89 86 264 259 390 383 l228 226 0 630 c0 346 3 633 7 636 3 4 30 7 59 7
l53 0 3 -652z m-6212 502 l0 -140 -27 -1 c-16 0 -38 -2 -50 -5 -23 -4 -23 -4
-23 141 l0 145 50 0 50 0 0 -140z m1635 122 c-3 -3 -11 0 -18 7 -9 10 -8 11 6
5 10 -3 15 -9 12 -12z m1290 8 c3 -5 1 -10 -4 -10 -6 0 -11 5 -11 10 0 6 2 10
4 10 3 0 8 -4 11 -10z m3895 -125 c0 -100 -3 -137 -12 -140 -7 -2 -30 -6 -50
-10 l-38 -6 0 146 0 145 50 0 50 0 0 -135z m-2970 78 c-4 -42 -5 -44 -8 -15
-3 30 2 62 10 62 2 0 1 -21 -2 -47z m-2193 -96 c-2 -23 -3 -1 -3 48 0 50 1 68
3 42 2 -26 2 -67 0 -90z m3422 37 c-16 -19 5 -44 37 -44 20 0 24 5 24 29 0 17
5 33 10 36 6 4 10 -12 10 -39 0 -25 5 -46 10 -46 6 0 10 -18 10 -40 0 -29 4
-40 15 -40 11 0 15 -11 15 -43 0 -24 5 -48 12 -55 9 -9 9 -12 0 -12 -6 0 -16
8 -21 18 -8 13 -10 14 -11 2 0 -13 -1 -13 -10 0 -7 10 -10 11 -10 2 0 -7 11
-17 25 -22 30 -11 34 -25 5 -17 -11 3 -20 1 -20 -3 0 -5 16 -12 35 -16 19 -3
35 -10 35 -14 0 -5 -22 -1 -50 8 -27 9 -50 20 -50 24 0 5 5 6 10 3 6 -3 10 -2
10 4 0 20 -22 22 -43 4 -19 -15 -20 -16 -8 0 17 22 -1 47 -34 47 -23 0 -23 1
-23 148 -1 138 0 145 14 114 11 -26 12 -37 3 -48z m109 41 c-1 -14 -6 -25 -10
-25 -10 0 -10 13 -2 34 9 23 14 19 12 -9z m-33 5 c3 -5 1 -10 -4 -10 -6 0 -11
5 -11 10 0 6 2 10 4 10 3 0 8 -4 11 -10z m355 -44 c0 -3 -4 -8 -10 -11 -5 -3
-10 -1 -10 4 0 6 5 11 10 11 6 0 10 -2 10 -4z m-4255 -15 c3 -5 1 -12 -5 -16
-5 -3 -10 1 -10 9 0 18 6 21 15 7z m3985 -15 c0 -3 -4 -8 -10 -11 -5 -3 -10
-1 -10 4 0 6 5 11 10 11 6 0 10 -2 10 -4z m265 -33 c-20 -20 -24 -16 -12 11 7
15 14 20 18 14 4 -6 1 -17 -6 -25z m-187 2 c-3 -3 -9 2 -12 12 -6 14 -5 15 5
6 7 -7 10 -15 7 -18z m-1464 -17 c-4 -5 -8 -7 -11 -4 -3 3 -14 -5 -24 -17 -10
-12 -18 -19 -19 -15 0 14 31 45 45 45 8 0 12 -4 9 -9z m-2499 -18 c3 -5 1 -10
-4 -10 -6 0 -11 5 -11 10 0 6 2 10 4 10 3 0 8 -4 11 -10z m286 -27 l1 -28 8
30 8 30 1 -32 c1 -24 -3 -33 -15 -33 -8 0 -12 -5 -9 -10 4 -6 10 -8 14 -6 4 3
8 -9 9 -26 1 -23 -2 -28 -8 -18 -7 12 -12 12 -22 2 -10 -10 -10 -14 0 -21 10
-6 10 -10 -3 -21 -13 -11 -15 -10 -9 4 7 19 -22 22 -46 5 -12 -8 -9 -9 10 -5
23 5 23 4 -2 -6 -16 -7 -28 -15 -28 -20 0 -4 -5 -8 -10 -8 -6 0 -5 8 2 19 9
15 9 23 -3 38 -13 17 -13 17 5 3 17 -13 20 -13 34 8 8 12 23 22 33 22 22 0 22
0 9 35 -7 19 -7 24 1 19 9 -5 10 1 5 20 -4 15 -2 26 4 26 5 0 11 -12 11 -27z
m2199 3 c0 -3 -4 -8 -10 -11 -5 -3 -10 -1 -10 4 0 6 5 11 10 11 6 0 10 -2 10
-4z m-868 -30 c7 4 8 3 4 -4 -10 -16 -17 -15 -46 9 l-25 21 28 -16 c15 -9 33
-14 39 -10z m835 18 c-3 -3 -12 -4 -19 -1 -8 3 -5 6 6 6 11 1 17 -2 13 -5z
m-753 -33 c3 -5 -2 -15 -12 -22 -15 -13 -16 -12 -4 3 10 13 10 17 0 21 -9 4
-9 6 -1 6 6 1 14 -3 17 -8z m671 -9 c-3 -3 -11 0 -18 7 -9 10 -8 11 6 5 10 -3
15 -9 12 -12z m-2513 -19 c-3 -16 -7 -22 -10 -15 -4 13 4 42 11 42 2 0 2 -12
-1 -27z m338 17 c8 -5 11 -12 7 -16 -4 -4 -15 0 -24 9 -18 18 -8 23 17 7z
m1468 -9 c-2 -5 6 -17 17 -26 11 -9 13 -13 5 -9 -27 13 -40 26 -34 35 7 12 15
12 12 0z m-3001 -36 c32 -32 35 -40 30 -77 -7 -49 -39 -85 -84 -94 -27 -5 -37
-2 -63 24 -25 25 -30 38 -30 77 0 38 5 52 29 76 40 40 74 38 118 -6z m1498 24
c4 -6 -2 -13 -14 -16 -12 -3 -21 -9 -21 -14 0 -5 -4 -9 -10 -9 -16 0 -12 22 8
36 21 16 29 17 37 3z m5272 5 c30 -8 63 -63 63 -104 0 -23 -9 -41 -35 -67 -30
-30 -40 -35 -68 -29 -67 13 -97 88 -62 156 23 45 52 57 102 44z m-3067 -8 c0
-3 -4 -8 -10 -11 -5 -3 -10 -1 -10 4 0 6 5 11 10 11 6 0 10 -2 10 -4z m-3414
-16 c13 0 21 -6 21 -17 -1 -10 0 -370 1 -800 l2 -782 113 -3 112 -3 3 -42 3
-43 -175 0 -176 0 0 851 0 852 38 -7 c20 -3 46 -6 58 -6z m6194 -840 l0 -850
-165 0 -165 0 0 45 0 45 105 0 105 0 0 805 0 805 60 0 60 0 0 -850z m-1023
834 c-3 -3 -12 -4 -19 -1 -8 3 -5 6 6 6 11 1 17 -2 13 -5z m-1805 -15 c-50
-41 -142 -97 -147 -89 -3 5 0 10 8 10 21 0 120 77 105 83 -7 2 -1 4 14 3 15 0
24 -4 20 -7z m1443 -7 c-3 -3 -11 0 -18 7 -9 10 -8 11 6 5 10 -3 15 -9 12 -12z
m-31 -8 c3 -8 2 -12 -4 -9 -6 3 -10 10 -10 16 0 14 7 11 14 -7z m463 -6 c-3
-8 -6 -5 -6 6 -1 11 2 17 5 13 3 -3 4 -12 1 -19z m-4057 -6 c-25 -8 -50 -34
-49 -51 0 -12 3 -11 9 4 8 20 11 18 14 -7 2 -20 -17 -38 -26 -25 -13 21 -19 0
-8 -29 9 -26 9 -27 -4 -11 -9 12 -16 14 -21 8 -3 -6 -11 -11 -16 -11 -6 0 -3
7 5 15 9 9 20 33 26 53 10 37 54 75 75 64 5 -3 2 -8 -5 -10z m880 -41 c0 -67
-5 -71 -92 -71 l-48 0 0 60 0 59 63 4 c34 2 65 4 70 5 4 1 7 -24 7 -57z m2140
-1 c0 -58 -7 -64 -85 -65 l-50 0 -3 58 -3 57 71 0 70 0 0 -50z m1105 34 c20
-21 11 -32 -11 -13 -14 11 -18 11 -29 -4 -11 -16 -35 -24 -35 -12 0 10 35 43
47 44 6 1 19 -6 28 -15z m-2434 -36 c11 -21 11 -22 -4 -9 -10 7 -17 17 -17 22
0 15 9 10 21 -13z m-1677 4 c3 -5 -1 -9 -9 -9 -8 0 -15 4 -15 9 0 4 4 8 9 8 6
0 12 -4 15 -8z m-137 -8 c-3 -3 -12 -4 -19 -1 -8 3 -5 6 6 6 11 1 17 -2 13 -5z
m43 0 c0 -2 -5 -14 -11 -28 -11 -24 -29 -27 -29 -5 0 6 5 7 11 3 7 -4 9 0 5
13 -4 14 -2 20 9 20 8 0 15 -2 15 -3z m3882 -12 c-4 -11 0 -13 16 -7 16 5 22
2 22 -9 0 -9 7 -16 15 -16 11 0 14 7 9 25 -3 14 -2 25 4 25 11 0 21 -30 15
-47 -6 -16 -39 -17 -49 -2 -3 6 -15 9 -25 6 -10 -3 -18 -2 -17 2 3 26 -3 33
-17 21 -8 -7 -12 -17 -8 -23 3 -6 1 -7 -5 -3 -9 5 -9 12 0 26 14 22 49 23 40
2z m-3962 -21 c0 -11 9 -21 21 -24 12 -3 18 -10 14 -17 -5 -8 -12 -7 -24 4
-15 13 -20 14 -36 2 -17 -12 -17 -14 3 -34 17 -17 18 -21 5 -26 -25 -10 -33
-7 -26 9 3 9 -2 22 -13 30 -15 11 -16 14 -4 15 9 0 24 10 34 21 15 18 15 23 5
30 -11 7 -10 9 4 9 10 0 17 -8 17 -19z m2184 10 c3 -5 -1 -11 -9 -14 -9 -4
-12 -1 -8 9 6 16 10 17 17 5z m-248 -32 c3 -6 -5 -3 -20 6 -14 10 -26 19 -26
22 0 7 39 -17 46 -28z m2154 -30 c0 -14 -20 -21 -20 -7 0 8 -5 6 -11 -4 -5
-10 -15 -18 -21 -18 -6 0 -5 7 3 16 12 15 11 16 -11 9 -23 -7 -24 -6 -6 7 19
15 66 13 66 -3z m-4080 1 c0 -5 -7 -10 -15 -10 -8 0 -15 5 -15 10 0 6 7 10 15
10 8 0 15 -4 15 -10z m4104 -6 c-16 -13 -16 -15 -1 -10 21 7 22 -10 2 -30 -13
-14 -15 -14 -15 1 0 13 -4 14 -22 4 -21 -11 -21 -11 3 19 13 17 30 31 38 31
11 1 9 -4 -5 -15z m-5713 -4 c0 10 2 11 6 3 2 -7 10 -13 16 -13 7 0 42 -62 79
-138 59 -122 106 -207 176 -323 17 -28 19 -36 7 -36 -8 0 -12 4 -10 8 7 10
-22 5 -32 -6 -4 -4 -3 -5 3 -2 11 6 24 -11 30 -41 11 -53 -104 131 -189 305
-73 148 -133 299 -97 243 9 -13 10 -13 11 0z m3689 -5 c-7 -8 -17 -15 -23 -15
-6 0 -2 7 9 15 25 19 30 19 14 0z m-2060 -14 c0 -6 -4 -12 -8 -15 -5 -3 -9 1
-9 9 0 8 4 15 9 15 4 0 8 -4 8 -9z m5630 -32 c0 -24 -104 -228 -113 -222 -6 4
-8 0 -5 -9 7 -17 -51 -129 -67 -129 -5 0 -11 5 -14 12 -2 6 1 9 7 5 13 -8 10
20 -4 31 -5 4 -6 4 -2 -1 6 -7 2 -15 -28 -49 -6 -7 -9 -18 -6 -26 3 -8 0 -11
-6 -7 -6 3 -12 0 -15 -6 -2 -7 -7 -11 -10 -8 -9 8 61 115 73 112 6 -1 10 3 9
10 -3 27 1 39 13 32 7 -4 8 -3 4 5 -9 14 55 132 68 124 5 -4 6 -1 1 6 -8 13
28 93 55 122 15 16 40 15 40 -2z m-1476 -46 c-3 -12 -12 -24 -19 -27 -11 -4
-11 0 0 21 8 15 11 31 8 37 -4 8 -2 8 5 1 6 -6 9 -20 6 -32z m-3818 -69 c-7
-17 -42 -18 -52 -2 -5 8 -2 9 9 5 24 -9 21 0 -4 14 -12 6 -19 7 -15 1 3 -6 -7
-9 -24 -8 -17 0 -30 4 -30 8 0 3 26 22 58 42 l57 35 3 -41 c2 -22 1 -47 -2
-54z m-1686 -21 c19 -38 43 -81 53 -97 25 -35 32 -86 13 -86 -8 0 -21 11 -30
25 -18 27 -22 49 -5 25 9 -13 10 -13 6 0 -2 8 -10 15 -17 15 -14 0 -99 148
-100 173 0 6 10 12 23 12 18 0 30 -14 57 -67z m6780 57 c0 -14 -44 -99 -64
-125 -12 -16 -15 -17 -16 -4 0 8 5 20 12 27 9 9 9 12 0 12 -6 0 -14 -11 -18
-25 -6 -24 -15 -31 -26 -19 -3 3 9 36 28 75 28 58 38 69 59 69 14 0 25 -5 25
-10z m-1643 -31 c1 -19 1 -20 -4 -4 -3 11 -10 24 -17 28 -7 6 -6 7 4 4 8 -2
16 -14 17 -28z m503 -13 c0 -2 -11 -6 -25 -8 -13 -3 -22 -1 -19 3 5 9 44 13
44 5z m-4015 -15 c-11 -18 15 -22 39 -6 l24 16 3 -79 4 -78 65 -60 c36 -32
108 -101 160 -151 l95 -93 205 0 205 -1 215 -201 c401 -375 495 -463 605 -570
l110 -106 45 41 c83 75 743 691 820 764 l75 73 201 0 201 0 69 68 c38 37 111
107 162 154 l92 87 0 76 0 76 38 -21 c78 -44 80 -47 85 -142 l6 -88 -132 -122
c-72 -68 -147 -139 -167 -158 l-35 -35 -216 -5 -215 -5 -81 -75 c-106 -98
-699 -656 -831 -782 -57 -54 -108 -98 -113 -98 -9 0 -156 136 -539 500 -102
96 -253 239 -337 318 l-152 142 -213 0 -213 0 -100 92 c-200 185 -243 231
-240 258 2 14 4 52 4 85 1 55 4 62 30 80 20 13 27 23 20 31 -5 6 -6 14 -2 17
9 10 15 8 8 -2z m4035 -10 c0 -4 -11 -6 -25 -3 -14 2 -25 6 -25 8 0 2 11 4 25
4 14 0 25 -4 25 -9z m-2439 -109 c63 -54 120 -105 126 -114 11 -13 19 -9 55
26 44 42 214 186 220 186 2 0 2 -72 0 -160 l-3 -160 -130 -110 -131 -111 -56
48 c-32 26 -88 74 -127 107 -38 33 -71 61 -72 61 -6 2 -10 325 -4 325 5 0 59
-44 122 -98z m3558 -143 c-17 -34 -49 -73 -49 -62 0 6 7 16 15 23 8 7 12 16 9
21 -3 5 0 9 5 9 6 0 10 3 10 8 -1 4 -1 16 0 27 1 14 4 16 12 8 8 -8 7 -17 -2
-34z m-5455 -73 c64 -19 131 -77 163 -139 85 -168 -39 -380 -222 -381 -108 -1
-198 53 -245 147 -105 211 81 440 304 373z m4212 -1 c64 -19 113 -60 149 -126
58 -107 30 -254 -62 -326 -66 -52 -103 -67 -173 -67 -76 -1 -120 18 -174 71
-145 145 -92 380 101 449 50 17 98 17 159 -1z m-3778 -367 c3 -37 3 -37 47
-36 32 0 45 5 48 17 3 10 5 8 6 -6 1 -23 -1 -23 -109 -23 l-110 0 0 45 0 46
58 -3 57 -3 3 -37z m3302 -3 l0 -45 -115 0 c-74 0 -115 4 -115 11 0 6 22 9 58
7 45 -2 56 0 54 11 -2 8 -1 25 3 38 5 21 11 23 60 23 l55 0 0 -45z m-2787 -46
c50 -13 113 -71 128 -116 6 -19 9 -64 7 -99 -3 -52 -9 -70 -35 -101 -16 -21
-43 -46 -59 -55 -34 -20 -33 -20 -336 -12 l-228 6 0 31 c0 18 -3 42 -6 55 l-6
22 144 0 144 0 -4 63 c-3 50 0 72 17 105 44 85 140 127 234 101z m2320 -22
c21 -12 51 -42 68 -67 27 -41 30 -51 27 -113 l-3 -67 100 0 100 0 -3 -53 -4
-54 -220 -6 c-208 -6 -223 -5 -260 14 -118 60 -133 244 -28 333 17 14 44 29
58 32 15 3 32 7 37 9 21 8 92 -8 128 -28z m-1943 -319 l120 -112 0 -193 0
-193 -39 0 -40 0 -3 185 -3 185 -98 98 c-92 93 -98 101 -86 121 8 11 17 21 21
21 4 0 62 -50 128 -112z m1550 87 c13 -25 11 -29 -80 -120 l-93 -93 -1 -184
-1 -183 -42 -3 -43 -3 0 193 0 193 117 112 c65 62 121 112 124 113 3 0 12 -11
19 -25z m-2540 -54 c0 -73 4 -71 -156 -71 l-144 0 0 55 0 55 150 0 150 0 0
-39z m3680 -16 l0 -55 -195 0 -195 0 0 55 0 55 195 0 195 0 0 -55z m-4502 -81
c255 -179 401 -289 398 -299 -1 -5 -11 -11 -22 -13 -16 -2 -207 105 -461 259
l-73 44 0 46 c0 41 5 59 17 59 2 0 66 -43 141 -96z m5178 50 c8 -55 11 -51
-121 -131 -354 -212 -393 -233 -408 -227 -10 3 -17 9 -17 13 0 15 69 72 190
157 69 48 172 121 229 161 57 40 107 73 112 73 4 0 11 -21 15 -46z m-3612
-471 c31 -91 12 -198 -47 -261 -91 -98 -264 -85 -342 26 -24 35 -30 55 -33
113 -3 42 1 81 8 100 12 27 17 30 43 25 16 -3 35 -6 41 -6 7 0 10 -19 7 -56
-3 -65 8 -93 49 -117 63 -38 155 -9 187 58 14 28 15 44 6 89 -11 63 -4 76 38
76 23 0 29 -7 43 -47z m1994 32 c1 -1 -2 -24 -8 -51 -16 -68 -6 -107 36 -143
44 -40 110 -43 161 -8 43 29 56 63 48 121 l-7 46 41 0 c39 0 43 -3 58 -37 10
-25 13 -53 10 -85 -17 -139 -134 -226 -267 -197 -70 15 -123 57 -155 124 -24
49 -27 64 -23 123 3 37 11 80 19 95 12 26 16 28 48 22 20 -4 37 -8 39 -10z
m712 -59 c0 -3 -4 -8 -10 -11 -5 -3 -10 -1 -10 4 0 6 5 11 10 11 6 0 10 -2 10
-4z m55 -12 c-22 -9 -48 -20 -58 -25 -11 -6 -21 -8 -24 -6 -10 10 72 45 107
46 8 0 -3 -7 -25 -15z m-100 -4 c11 -5 14 -9 6 -9 -7 -1 -11 -7 -7 -16 4 -11
-7 -18 -42 -28 -40 -12 -47 -12 -50 0 -7 27 7 43 35 42 l28 -1 -30 -8 c-28 -7
-28 -8 -5 -9 14 0 32 4 40 9 13 9 13 11 0 20 -18 12 -3 12 25 0z m-2277 -36
c33 -38 30 -97 -7 -135 -49 -48 -111 -36 -137 28 -20 46 -10 86 28 118 37 31
81 27 116 -11z m1262 -2 c69 -87 -47 -216 -125 -137 -48 47 -23 158 38 167 39
6 67 -4 87 -30z m-2320 -1 c0 -6 -4 -13 -10 -16 -5 -3 -10 1 -10 9 0 9 5 16
10 16 6 0 10 -4 10 -9z m1752 -32 c177 -59 293 -201 320 -390 10 -68 9 -82 -3
-90 -25 -16 -29 -10 -29 39 0 60 -24 143 -57 201 -92 160 -286 243 -458 197
-129 -34 -237 -133 -288 -262 -14 -37 -39 -176 -41 -231 -2 -39 -14 -25 -22
23 -13 91 17 227 70 319 49 83 161 166 271 201 63 20 167 17 237 -7z m-1789
-144 c17 -4 77 -43 77 -50 0 -2 -16 3 -35 11 -40 17 -110 60 -80 49 11 -4 28
-8 38 -10z m1786 -18 c98 -36 176 -136 202 -258 19 -89 -3 -176 -76 -289 -35
-55 -52 -71 -105 -99 -54 -29 -74 -34 -134 -35 -89 -1 -162 23 -210 70 -20 19
-55 74 -78 122 -41 83 -43 91 -43 177 0 79 4 97 29 149 82 168 238 229 415
163z m1466 -30 c-41 -26 -95 -47 -95 -36 0 6 -7 8 -16 5 -9 -3 -12 -2 -9 5 4
5 15 7 25 4 10 -3 36 3 57 15 41 22 69 28 38 7z m-3132 -9 c28 -15 44 -19 84
-21 22 -1 29 -4 20 -10 -8 -6 -4 -7 11 -4 18 4 21 3 12 -7 -8 -10 1 -18 40
-35 28 -12 59 -19 70 -16 10 3 21 1 24 -4 4 -6 13 -8 20 -5 8 3 17 0 21 -5 3
-6 11 -8 17 -5 6 4 13 2 17 -3 3 -5 25 -19 49 -31 33 -17 47 -20 60 -11 16 10
16 10 0 5 -10 -3 -20 -1 -23 4 -9 15 14 12 85 -11 63 -20 89 -26 120 -28 12
-1 13 -3 1 -10 -15 -10 -4 -15 62 -27 20 -3 37 -10 37 -14 0 -4 21 -10 48 -14
58 -9 156 -16 122 -9 -14 2 -29 9 -35 15 -7 6 -1 7 15 3 14 -3 48 -9 75 -13
45 -6 50 -10 53 -34 3 -26 2 -27 -35 -21 -90 13 -286 55 -388 84 -60 16 -136
37 -167 46 -32 9 -55 19 -53 23 3 5 -5 6 -17 2 -16 -4 -19 -2 -13 8 5 9 4 11
-4 6 -13 -8 -83 12 -77 22 2 4 -8 8 -22 9 -15 1 -67 20 -117 41 -129 56 -145
64 -145 74 0 11 7 10 33 -4z m665 -24 c16 -5 20 -10 13 -18 -7 -8 -2 -12 17
-14 22 -1 24 0 12 9 -17 12 -19 12 114 -26 48 -14 97 -25 107 -25 20 0 26 -15
9 -25 -6 -4 -8 -10 -6 -14 12 -18 -255 43 -306 70 -15 8 -16 13 -5 29 13 22
13 22 45 14z m1777 -24 c0 -23 -8 -27 -100 -53 -127 -35 -223 -56 -230 -49 -3
3 -5 15 -5 27 0 17 8 24 31 29 17 3 43 3 57 0 21 -4 24 -3 12 5 -12 9 -10 11
10 11 30 0 171 40 185 52 18 16 40 3 40 -22z m585 5 c0 -1 -8 -5 -18 -7 -11
-3 -19 0 -19 7 0 7 8 10 19 7 10 -2 18 -6 18 -7z m-82 -21 c-2 -9 -19 -22 -38
-30 l-35 -14 25 20 c14 11 29 20 33 20 5 0 5 5 2 10 -3 6 -1 10 5 10 6 0 10
-7 8 -16z m-63 -12 c-3 -3 -11 0 -18 7 -9 10 -8 11 6 5 10 -3 15 -9 12 -12z
m-2635 4 c0 -2 -7 -7 -16 -10 -8 -3 -12 -2 -9 4 6 10 25 14 25 6z m2620 -25
c0 -10 -1 -11 -155 -66 -203 -72 -541 -152 -601 -141 -41 8 -51 23 -23 35 38
16 222 42 246 35 30 -8 115 5 108 17 -3 5 0 6 8 4 7 -3 29 1 48 9 20 8 47 13
60 10 20 -5 21 -4 9 6 -12 9 -10 11 12 6 30 -7 66 3 49 13 -6 4 8 7 30 8 22 1
56 8 75 15 29 10 32 14 17 20 -11 5 -5 7 17 3 33 -4 34 -4 12 8 l-23 13 25 12
c16 7 26 8 26 2 0 -6 -8 -10 -17 -10 -16 -1 -16 -2 1 -12 15 -8 21 -8 24 0 2
7 8 10 13 6 19 -11 30 8 12 23 -17 13 -16 13 5 3 12 -6 22 -15 22 -19z m-335
-81 c-3 -5 -12 -10 -18 -10 -7 0 -6 4 3 10 19 12 23 12 15 0z m-1738 -56 c-3
-3 -12 -4 -19 -1 -8 3 -5 6 6 6 11 1 17 -2 13 -5z m40 -10 c-3 -3 -12 -4 -19
-1 -8 3 -5 6 6 6 11 1 17 -2 13 -5z"/>
<path d="M4423 8385 c-45 -32 -37 -121 13 -144 39 -17 66 -13 96 16 75 71 -24
187 -109 128z"/>
<path d="M5845 8375 c-52 -51 -16 -145 54 -145 39 0 79 36 87 77 5 27 1 37
-24 63 -39 38 -83 40 -117 5z"/>
<path d="M5056 8981 c-10 -10 -13 -22 -8 -25 5 -3 14 6 20 19 14 30 11 31 -12
6z"/>
<path d="M5290 8996 c0 -2 8 -10 18 -17 15 -13 16 -12 3 4 -13 16 -21 21 -21
13z"/>
<path d="M5102 8814 c10 -10 20 -16 22 -13 3 3 -5 11 -17 18 -21 13 -21 12 -5
-5z"/>
<path d="M5208 8793 c7 -3 16 -2 19 1 4 3 -2 6 -13 5 -11 0 -14 -3 -6 -6z"/>
<path d="M3895 8139 c-53 -30 -62 -94 -19 -134 79 -73 192 30 122 109 -26 30
-74 41 -103 25z"/>
<path d="M6410 8143 c-91 -35 -72 -163 25 -163 74 0 114 89 63 138 -25 23 -65
34 -88 25z"/>
<path d="M5517 5342 c-10 -10 -14 -22 -10 -25 3 -4 0 -7 -7 -7 -10 0 -9 -5 3
-18 20 -21 22 -32 6 -32 -5 0 -7 5 -3 12 4 6 3 8 -3 5 -11 -7 -11 -43 0 -53 4
-4 2 -13 -4 -21 -9 -10 -8 -17 1 -28 10 -12 10 -19 2 -27 -7 -7 -12 -17 -12
-22 0 -6 5 -4 10 4 10 16 11 13 14 -41 1 -24 -3 -35 -10 -32 -7 2 -15 0 -19
-6 -3 -6 1 -11 9 -11 20 0 29 -17 15 -26 -8 -5 -9 -3 -4 6 5 9 4 11 -4 6 -7
-5 -8 -13 -2 -24 5 -9 5 -26 0 -40 -6 -17 -6 -21 3 -16 7 5 8 3 3 -7 -5 -7 -8
-51 -7 -96 1 -59 -2 -83 -11 -83 -7 0 -3 -7 7 -15 11 -8 15 -15 10 -15 -10 0
-11 -126 -1 -137 4 -3 2 -12 -4 -20 -9 -10 -8 -13 2 -13 9 -1 8 -4 -4 -11 -12
-7 -15 -15 -9 -22 16 -20 21 -57 9 -57 -7 0 -5 -5 3 -10 13 -9 13 -11 0 -20
-13 -8 -12 -10 4 -10 14 0 16 -3 8 -12 -6 -7 -11 -16 -11 -20 -1 -5 -1 -9 -2
-10 0 -2 -1 -20 -3 -41 -2 -29 -11 -45 -42 -71 -27 -23 -43 -31 -51 -24 -8 6
-10 3 -6 -11 3 -12 9 -21 14 -21 5 0 9 -10 8 -22 l0 -23 -9 23 c-12 30 -24 28
-60 -9 -16 -18 -30 -28 -30 -24 0 5 -6 0 -14 -11 -18 -24 -15 -27 18 -15 24
10 26 9 25 -17 -1 -17 -3 -20 -6 -9 -5 19 -18 22 -28 7 -3 -5 -12 -7 -20 -4
-12 5 -14 0 -9 -25 6 -26 4 -31 -14 -31 -20 0 -36 22 -25 34 12 12 22 6 17 -9
-4 -8 -1 -15 4 -15 10 0 8 37 -2 47 -9 9 -74 -69 -69 -83 3 -8 0 -14 -6 -14
-6 0 -11 -4 -11 -8 0 -5 7 -9 15 -9 8 0 12 4 9 9 -3 4 4 8 15 8 13 0 21 -8 23
-22 2 -13 10 -23 18 -23 25 -1 42 -16 36 -34 -6 -14 -5 -15 6 0 7 9 20 18 28
21 8 2 15 11 16 19 0 8 2 25 3 39 1 20 3 22 11 10 8 -12 10 -12 15 3 4 9 0 23
-9 32 -25 25 -19 36 6 12 7 -7 25 -18 40 -24 21 -10 27 -9 32 2 3 8 1 17 -4
20 -6 4 -10 14 -10 23 1 14 2 14 12 -3 16 -30 16 -30 37 -11 18 16 20 16 35
-6 18 -26 16 -46 21 207 6 285 7 305 19 305 8 0 8 2 0 8 -7 4 -12 56 -12 147
-1 77 -2 247 -2 378 -1 130 -3 237 -4 237 -2 0 -10 -8 -19 -18z m-27 -1072 c0
-5 -4 -10 -10 -10 -5 0 -10 5 -10 10 0 6 5 10 10 10 6 0 10 -4 10 -10z m-94
-103 c-2 -7 -5 -4 -5 6 -1 9 -5 17 -11 17 -5 0 -7 -6 -4 -13 3 -8 -3 -13 -15
-13 -20 0 -20 1 1 23 19 20 23 21 31 8 4 -9 6 -21 3 -28z m-72 -82 c3 -8 1
-15 -3 -15 -5 0 -11 7 -15 15 -3 8 -1 15 3 15 5 0 11 -7 15 -15z m-79 -35 c3
-5 15 -10 27 -10 15 0 19 -5 15 -20 -4 -15 1 -22 19 -26 29 -7 32 -24 4 -24
-20 0 -44 32 -33 44 3 3 -1 6 -9 6 -26 0 -71 27 -56 33 20 8 26 8 33 -3z m85
-30 c0 -11 -4 -20 -10 -20 -5 0 -10 9 -10 20 0 11 5 20 10 20 6 0 10 -9 10
-20z"/>
<path d="M4850 5331 c0 -11 5 -23 10 -26 6 -3 10 3 10 14 0 11 -4 23 -10 26
-5 3 -10 -3 -10 -14z"/>
<path d="M4853 5271 c1 -12 6 -17 15 -14 10 4 11 8 2 13 -9 6 -9 9 1 13 10 4
9 6 -3 6 -11 1 -16 -6 -15 -18z"/>
<path d="M3020 5220 c0 -11 4 -20 9 -20 17 0 19 15 5 28 -12 11 -14 9 -14 -8z"/>
<path d="M4850 5231 c0 -6 5 -13 12 -17 7 -4 8 -3 4 4 -4 7 -1 12 9 12 10 0
13 -5 9 -12 -4 -7 -3 -8 5 -4 6 4 9 12 6 17 -8 12 -45 12 -45 0z"/>
<path d="M7333 5207 c8 -7 17 -19 20 -27 3 -9 6 -5 6 10 1 19 -4 26 -20 27
-18 2 -19 0 -6 -10z"/>
<path d="M4855 5190 c-10 -16 -14 -1030 -4 -1030 5 0 9 11 9 25 0 14 5 25 10
25 7 0 7 7 -1 21 -10 19 -9 20 11 14 17 -5 21 -4 17 6 -2 8 -10 13 -16 12 -6
-2 -11 3 -11 11 0 8 -6 17 -12 19 -8 3 -5 6 5 6 10 1 15 6 12 11 -3 6 -1 10 5
10 7 0 10 -7 7 -15 -4 -8 -2 -17 4 -21 7 -4 9 6 7 26 -2 17 -10 35 -18 40 -8
6 -10 10 -5 10 6 0 3 5 -5 10 -13 8 -12 10 5 11 11 1 23 1 28 0 4 0 7 6 7 14
0 8 -4 15 -10 15 -5 0 -10 -4 -10 -10 0 -5 -7 -10 -15 -10 -20 0 -19 19 0 27
14 5 14 8 -1 24 -16 17 -16 19 1 25 9 4 20 2 24 -3 4 -7 11 -6 19 3 7 8 8 14
3 14 -6 0 -9 14 -7 30 2 17 0 33 -5 36 -5 3 -9 -2 -9 -10 0 -9 -7 -16 -15 -16
-8 0 -15 5 -15 11 0 5 6 7 13 3 10 -6 10 -4 0 7 -20 20 -15 31 10 24 22 -7 22
-7 2 8 -11 9 -17 19 -13 23 4 4 3 13 -3 20 -8 9 -6 11 8 8 14 -4 18 1 19 23 1
15 -1 22 -3 16 -6 -16 -33 -17 -33 -3 0 6 10 15 23 20 17 7 18 9 5 9 -22 1
-24 21 -3 21 8 0 15 4 15 9 0 5 -8 7 -18 4 -14 -3 -18 2 -17 24 0 22 4 27 20
25 17 -4 17 -2 -4 15 -19 15 -21 22 -11 28 9 6 11 4 5 -5 -5 -8 -3 -11 5 -8
23 7 22 25 -2 33 l-23 7 25 8 25 8 -27 1 c-16 1 -28 6 -28 11 0 6 4 10 9 10 4
0 6 11 3 25 -2 14 0 25 7 25 5 0 8 7 5 15 -4 8 -10 12 -15 9 -5 -3 -9 -1 -9 5
0 13 37 24 51 15 8 -4 9 -3 5 4 -4 7 -17 12 -29 12 -18 0 -19 2 -7 10 12 8 12
10 1 10 -11 0 -11 3 -1 15 7 8 16 12 21 9 5 -3 9 0 9 6 0 7 -7 10 -15 7 -8 -4
-17 -2 -20 2 -3 5 2 11 10 15 21 8 19 24 -6 31 -26 8 -19 30 9 29 12 -1 19 3
16 7 -3 5 -10 7 -15 4 -5 -4 -9 0 -9 7 0 9 -3 9 -10 -2 -9 -13 -10 -13 -10 0
0 8 9 21 20 28 11 7 20 18 20 25 0 6 -5 4 -11 -5 -12 -22 -31 -24 -23 -3 7 17
-1 21 -11 5z m42 -695 c0 -8 -4 -12 -9 -9 -5 3 -6 10 -3 15 9 13 12 11 12 -6z
m-10 -161 c-3 -3 -12 -4 -19 -1 -8 3 -5 6 6 6 11 1 17 -2 13 -5z"/>
<path d="M7305 5160 c-3 -5 -1 -10 4 -10 6 0 11 5 11 10 0 6 -2 10 -4 10 -3 0
-8 -4 -11 -10z"/>
<path d="M5485 5091 c-3 -5 -1 -12 4 -15 5 -3 11 1 15 9 6 16 -9 21 -19 6z"/>
<path d="M7334 5078 c-4 -6 -3 -8 4 -4 7 4 12 -7 15 -31 l4 -38 1 43 c2 40 -9
55 -24 30z"/>
<path d="M5041 5014 c0 -11 3 -14 6 -6 3 7 2 16 -1 19 -3 4 -6 -2 -5 -13z"/>
<path d="M5055 4980 c3 -5 8 -10 11 -10 2 0 4 5 4 10 0 6 -5 10 -11 10 -5 0
-7 -4 -4 -10z"/>
<path d="M7350 4971 c0 -11 -6 -22 -12 -24 -10 -4 -10 -6 0 -6 6 -1 12 -5 12
-10 0 -4 -12 -7 -27 -5 -16 2 -21 1 -13 -2 8 -4 23 -11 32 -15 14 -8 16 -3 16
36 0 25 -2 45 -4 45 -2 0 -4 -9 -4 -19z"/>
<path d="M4890 4950 c0 -5 5 -10 10 -10 6 0 10 5 10 10 0 6 -4 10 -10 10 -5 0
-10 -4 -10 -10z"/>
<path d="M3045 4920 c4 -6 11 -8 16 -5 14 9 11 15 -7 15 -8 0 -12 -5 -9 -10z"/>
<path d="M4885 4920 c-3 -5 -2 -10 4 -10 5 0 13 5 16 10 3 6 2 10 -4 10 -5 0
-13 -4 -16 -10z"/>
<path d="M7307 4880 c3 -11 9 -20 15 -20 5 0 4 9 -2 20 -6 11 -12 20 -14 20
-2 0 -2 -9 1 -20z"/>
<path d="M4895 4880 c3 -5 8 -10 11 -10 2 0 4 5 4 10 0 6 -5 10 -11 10 -5 0
-7 -4 -4 -10z"/>
<path d="M5000 4879 c0 -5 5 -7 10 -4 6 3 10 8 10 11 0 2 -4 4 -10 4 -5 0 -10
-5 -10 -11z"/>
<path d="M5030 4860 c0 -5 5 -10 11 -10 5 0 7 5 4 10 -3 6 -8 10 -11 10 -2 0
-4 -4 -4 -10z"/>
<path d="M3325 4850 c3 -5 8 -10 11 -10 2 0 4 5 4 10 0 6 -5 10 -11 10 -5 0
-7 -4 -4 -10z"/>
<path d="M7140 4850 c0 -5 5 -10 11 -10 5 0 7 5 4 10 -3 6 -8 10 -11 10 -2 0
-4 -4 -4 -10z"/>
<path d="M4946 4823 c-6 -14 -5 -15 5 -6 7 7 10 15 7 18 -3 3 -9 -2 -12 -12z"/>
<path d="M5110 4819 c0 -5 5 -7 10 -4 6 3 10 8 10 11 0 2 -4 4 -10 4 -5 0 -10
-5 -10 -11z"/>
<path d="M5030 4799 c0 -5 5 -7 10 -4 6 3 10 8 10 11 0 2 -4 4 -10 4 -5 0 -10
-5 -10 -11z"/>
<path d="M7298 4803 c7 -3 16 -2 19 1 4 3 -2 6 -13 5 -11 0 -14 -3 -6 -6z"/>
<path d="M4953 4784 c-15 -16 -16 -24 -4 -24 8 0 24 30 19 35 -2 2 -9 -3 -15
-11z"/>
<path d="M3160 4770 c0 -5 5 -10 11 -10 5 0 7 5 4 10 -3 6 -8 10 -11 10 -2 0
-4 -4 -4 -10z"/>
<path d="M7305 4770 c3 -5 11 -10 16 -10 6 0 7 5 4 10 -3 6 -11 10 -16 10 -6
0 -7 -4 -4 -10z"/>
<path d="M5120 4763 c0 -15 18 -35 23 -27 3 5 -1 15 -9 22 -8 7 -14 9 -14 5z"/>
<path d="M5395 4760 c-3 -5 -1 -10 4 -10 6 0 11 5 11 10 0 6 -2 10 -4 10 -3 0
-8 -4 -11 -10z"/>
<path d="M4885 4750 c3 -5 8 -10 11 -10 2 0 4 5 4 10 0 6 -5 10 -11 10 -5 0
-7 -4 -4 -10z"/>
<path d="M5035 4750 c3 -5 8 -10 11 -10 2 0 4 5 4 10 0 6 -5 10 -11 10 -5 0
-7 -4 -4 -10z"/>
<path d="M3180 4740 c0 -5 5 -10 10 -10 6 0 10 5 10 10 0 6 -4 10 -10 10 -5 0
-10 -4 -10 -10z"/>
<path d="M7305 4730 c-3 -5 -1 -10 4 -10 6 0 11 5 11 10 0 6 -2 10 -4 10 -3 0
-8 -4 -11 -10z"/>
<path d="M5000 4720 c0 -5 5 -10 10 -10 6 0 10 5 10 10 0 6 -4 10 -10 10 -5 0
-10 -4 -10 -10z"/>
<path d="M5060 4719 c0 -5 5 -7 10 -4 6 3 10 8 10 11 0 2 -4 4 -10 4 -5 0 -10
-5 -10 -11z"/>
<path d="M5107 4719 c7 -7 15 -10 18 -7 3 3 -2 9 -12 12 -14 6 -15 5 -6 -5z"/>
<path d="M3195 4700 c-3 -5 -1 -10 4 -10 6 0 11 5 11 10 0 6 -2 10 -4 10 -3 0
-8 -4 -11 -10z"/>
<path d="M5035 4700 c-3 -5 -1 -10 4 -10 6 0 11 5 11 10 0 6 -2 10 -4 10 -3 0
-8 -4 -11 -10z"/>
<path d="M7061 4694 c0 -11 3 -14 6 -6 3 7 2 16 -1 19 -3 4 -6 -2 -5 -13z"/>
<path d="M3125 4690 c-3 -5 1 -10 9 -10 9 0 16 5 16 10 0 6 -4 10 -9 10 -6 0
-13 -4 -16 -10z"/>
<path d="M3365 4690 c-3 -5 -1 -10 4 -10 6 0 11 5 11 10 0 6 -2 10 -4 10 -3 0
-8 -4 -11 -10z"/>
<path d="M5085 4690 c3 -5 8 -10 11 -10 2 0 4 5 4 10 0 6 -5 10 -11 10 -5 0
-7 -4 -4 -10z"/>
<path d="M5140 4690 c0 -5 5 -10 11 -10 5 0 7 5 4 10 -3 6 -8 10 -11 10 -2 0
-4 -4 -4 -10z"/>
<path d="M5380 4689 c0 -5 5 -7 10 -4 6 3 10 8 10 11 0 2 -4 4 -10 4 -5 0 -10
-5 -10 -11z"/>
<path d="M7225 4690 c3 -5 8 -10 11 -10 2 0 4 5 4 10 0 6 -5 10 -11 10 -5 0
-7 -4 -4 -10z"/>
<path d="M3248 4683 c7 -3 16 -2 19 1 4 3 -2 6 -13 5 -11 0 -14 -3 -6 -6z"/>
<path d="M3165 4670 c3 -5 8 -10 11 -10 2 0 4 5 4 10 0 6 -5 10 -11 10 -5 0
-7 -4 -4 -10z"/>
<path d="M4750 4669 c0 -5 5 -7 10 -4 6 3 10 8 10 11 0 2 -4 4 -10 4 -5 0 -10
-5 -10 -11z"/>
<path d="M4805 4670 c-3 -5 -1 -10 4 -10 6 0 11 5 11 10 0 6 -2 10 -4 10 -3 0
-8 -4 -11 -10z"/>
<path d="M5005 4670 c3 -5 8 -10 11 -10 2 0 4 5 4 10 0 6 -5 10 -11 10 -5 0
-7 -4 -4 -10z"/>
<path d="M5065 4670 c-3 -5 -1 -10 4 -10 6 0 11 5 11 10 0 6 -2 10 -4 10 -3 0
-8 -4 -11 -10z"/>
<path d="M5111 4664 c0 -11 3 -14 6 -6 3 7 2 16 -1 19 -3 4 -6 -2 -5 -13z"/>
<path d="M5245 4670 c-3 -5 -1 -10 4 -10 6 0 11 5 11 10 0 6 -2 10 -4 10 -3 0
-8 -4 -11 -10z"/>
<path d="M5300 4670 c0 -5 5 -10 11 -10 5 0 7 5 4 10 -3 6 -8 10 -11 10 -2 0
-4 -4 -4 -10z"/>
<path d="M5656 4663 c-6 -14 -5 -15 5 -6 7 7 10 15 7 18 -3 3 -9 -2 -12 -12z"/>
<path d="M3185 4640 c-3 -5 -1 -10 4 -10 6 0 11 5 11 10 0 6 -2 10 -4 10 -3 0
-8 -4 -11 -10z"/>
<path d="M5020 4640 c0 -5 5 -10 10 -10 6 0 10 5 10 10 0 6 -4 10 -10 10 -5 0
-10 -4 -10 -10z"/>
<path d="M5080 4640 c0 -5 5 -10 10 -10 6 0 10 5 10 10 0 6 -4 10 -10 10 -5 0
-10 -4 -10 -10z"/>
<path d="M3120 4630 c0 -5 5 -10 10 -10 6 0 10 5 10 10 0 6 -4 10 -10 10 -5 0
-10 -4 -10 -10z"/>
<path d="M4960 4630 c0 -5 5 -10 10 -10 6 0 10 5 10 10 0 6 -4 10 -10 10 -5 0
-10 -4 -10 -10z"/>
<path d="M4755 4620 c3 -5 8 -10 11 -10 2 0 4 5 4 10 0 6 -5 10 -11 10 -5 0
-7 -4 -4 -10z"/>
<path d="M3155 4610 c3 -5 8 -10 11 -10 2 0 4 5 4 10 0 6 -5 10 -11 10 -5 0
-7 -4 -4 -10z"/>
<path d="M3320 4610 c0 -5 5 -10 10 -10 6 0 10 5 10 10 0 6 -4 10 -10 10 -5 0
-10 -4 -10 -10z"/>
<path d="M4990 4610 c0 -5 7 -10 15 -10 8 0 15 5 15 10 0 6 -7 10 -15 10 -8 0
-15 -4 -15 -10z"/>
<path d="M5055 4610 c-3 -5 -1 -10 4 -10 6 0 11 5 11 10 0 6 -2 10 -4 10 -3 0
-8 -4 -11 -10z"/>
<path d="M5110 4609 c0 -5 5 -7 10 -4 6 3 10 8 10 11 0 2 -4 4 -10 4 -5 0 -10
-5 -10 -11z"/>
<path d="M5360 4609 c0 -5 5 -7 10 -4 6 3 10 8 10 11 0 2 -4 4 -10 4 -5 0 -10
-5 -10 -11z"/>
<path d="M6955 4610 c3 -5 8 -10 11 -10 2 0 4 5 4 10 0 6 -5 10 -11 10 -5 0
-7 -4 -4 -10z"/>
<path d="M4901 4594 c0 -11 3 -14 6 -6 3 7 2 16 -1 19 -3 4 -6 -2 -5 -13z"/>
<path d="M5410 4601 c0 -6 -8 -11 -17 -12 -10 0 -13 -3 -6 -5 18 -8 49 11 34
20 -6 4 -11 2 -11 -3z"/>
<path d="M7305 4600 c-3 -5 -1 -10 4 -10 6 0 11 5 11 10 0 6 -2 10 -4 10 -3 0
-8 -4 -11 -10z"/>
<path d="M3240 4590 c0 -5 5 -10 10 -10 6 0 10 5 10 10 0 6 -4 10 -10 10 -5 0
-10 -4 -10 -10z"/>
<path d="M5087 4593 c-4 -3 -7 -11 -7 -17 0 -6 5 -5 12 2 6 6 9 14 7 17 -3 3
-9 2 -12 -2z"/>
<path d="M5135 4590 c-3 -5 -1 -10 4 -10 6 0 11 5 11 10 0 6 -2 10 -4 10 -3 0
-8 -4 -11 -10z"/>
<path d="M7106 4583 c-6 -14 -5 -15 5 -6 7 7 10 15 7 18 -3 3 -9 -2 -12 -12z"/>
<path d="M3185 4580 c3 -5 8 -10 11 -10 2 0 4 5 4 10 0 6 -5 10 -11 10 -5 0
-7 -4 -4 -10z"/>
<path d="M5027 4583 c-4 -3 -7 -11 -7 -17 0 -6 5 -5 12 2 6 6 9 14 7 17 -3 3
-9 2 -12 -2z"/>
<path d="M5335 4580 c3 -5 8 -10 11 -10 2 0 4 5 4 10 0 6 -5 10 -11 10 -5 0
-7 -4 -4 -10z"/>
<path d="M5440 4575 c0 -8 5 -15 10 -15 6 0 10 7 10 15 0 8 -4 15 -10 15 -5 0
-10 -7 -10 -15z"/>
<path d="M4756 4564 c-5 -14 -4 -15 9 -4 17 14 19 20 6 20 -5 0 -12 -7 -15
-16z"/>
<path d="M5260 4570 c0 -5 5 -10 10 -10 6 0 10 5 10 10 0 6 -4 10 -10 10 -5 0
-10 -4 -10 -10z"/>
<path d="M3155 4560 c3 -5 8 -10 11 -10 2 0 4 5 4 10 0 6 -5 10 -11 10 -5 0
-7 -4 -4 -10z"/>
<path d="M3215 4560 c-3 -5 -1 -10 4 -10 6 0 11 5 11 10 0 6 -2 10 -4 10 -3 0
-8 -4 -11 -10z"/>
<path d="M3265 4560 c-3 -5 -1 -10 4 -10 6 0 11 5 11 10 0 6 -2 10 -4 10 -3 0
-8 -4 -11 -10z"/>
<path d="M5110 4560 c-13 -8 -12 -10 3 -10 9 0 17 5 17 10 0 12 -1 12 -20 0z"/>
<path d="M5305 4560 c-3 -5 -1 -10 4 -10 6 0 11 5 11 10 0 6 -2 10 -4 10 -3 0
-8 -4 -11 -10z"/>
<path d="M7065 4561 c-3 -5 -1 -12 5 -16 5 -3 10 1 10 9 0 18 -6 21 -15 7z"/>
<path d="M5045 4549 c-11 -17 1 -21 15 -4 8 9 8 15 2 15 -6 0 -14 -5 -17 -11z"/>
<path d="M5355 4550 c4 -6 11 -8 16 -5 14 9 11 15 -7 15 -8 0 -12 -5 -9 -10z"/>
<path d="M6905 4550 c-3 -5 -1 -10 4 -10 6 0 11 5 11 10 0 6 -2 10 -4 10 -3 0
-8 -4 -11 -10z"/>
<path d="M4960 4539 c0 -5 5 -7 10 -4 6 3 10 8 10 11 0 2 -4 4 -10 4 -5 0 -10
-5 -10 -11z"/>
<path d="M3235 4530 c-3 -5 -1 -10 4 -10 6 0 11 5 11 10 0 6 -2 10 -4 10 -3 0
-8 -4 -11 -10z"/>
<path d="M3365 4530 c-3 -5 -1 -10 4 -10 6 0 11 5 11 10 0 6 -2 10 -4 10 -3 0
-8 -4 -11 -10z"/>
<path d="M3412 4520 c0 -14 2 -19 5 -12 2 6 2 18 0 25 -3 6 -5 1 -5 -13z"/>
<path d="M5075 4530 c4 -6 11 -8 16 -5 14 9 11 15 -7 15 -8 0 -12 -5 -9 -10z"/>
<path d="M5140 4529 c0 -5 5 -7 10 -4 6 3 10 8 10 11 0 2 -4 4 -10 4 -5 0 -10
-5 -10 -11z"/>
<path d="M5330 4525 c0 -8 4 -15 10 -15 5 0 7 7 4 15 -4 8 -8 15 -10 15 -2 0
-4 -7 -4 -15z"/>
<path d="M7295 4530 c-3 -5 -1 -10 4 -10 6 0 11 5 11 10 0 6 -2 10 -4 10 -3 0
-8 -4 -11 -10z"/>
<path d="M5372 4509 c-7 -12 -11 -23 -8 -26 3 -3 8 2 12 11 3 9 13 16 21 16 8
0 11 5 8 10 -9 15 -19 12 -33 -11z"/>
<path d="M4930 4510 c0 -5 5 -10 11 -10 5 0 7 5 4 10 -3 6 -8 10 -11 10 -2 0
-4 -4 -4 -10z"/>
<path d="M7195 4510 c-3 -5 -1 -10 4 -10 6 0 11 5 11 10 0 6 -2 10 -4 10 -3 0
-8 -4 -11 -10z"/>
<path d="M3160 4500 c0 -5 5 -10 10 -10 6 0 10 5 10 10 0 6 -4 10 -10 10 -5 0
-10 -4 -10 -10z"/>
<path d="M5040 4500 c0 -5 5 -10 10 -10 6 0 10 5 10 10 0 6 -4 10 -10 10 -5 0
-10 -4 -10 -10z"/>
<path d="M5300 4500 c0 -5 5 -10 10 -10 6 0 10 5 10 10 0 6 -4 10 -10 10 -5 0
-10 -4 -10 -10z"/>
<path d="M5421 4494 c0 -11 3 -14 6 -6 3 7 2 16 -1 19 -3 4 -6 -2 -5 -13z"/>
<path d="M4970 4481 c0 -6 4 -13 10 -16 6 -3 7 1 4 9 -7 18 -14 21 -14 7z"/>
<path d="M5000 4486 c0 -4 6 -14 14 -21 12 -12 15 -12 21 2 3 10 3 14 -1 10
-4 -4 -13 -2 -21 4 -7 6 -13 8 -13 5z"/>
<path d="M5077 4479 c7 -7 15 -10 18 -7 3 3 -2 9 -12 12 -14 6 -15 5 -6 -5z"/>
<path d="M7220 4480 c0 -5 5 -10 10 -10 6 0 10 5 10 10 0 6 -4 10 -10 10 -5 0
-10 -4 -10 -10z"/>
<path d="M3135 4470 c3 -5 8 -10 11 -10 2 0 4 5 4 10 0 6 -5 10 -11 10 -5 0
-7 -4 -4 -10z"/>
<path d="M3200 4469 c0 -5 5 -7 10 -4 6 3 10 8 10 11 0 2 -4 4 -10 4 -5 0 -10
-5 -10 -11z"/>
<path d="M5325 4469 c-11 -16 -1 -19 13 -3 7 8 8 14 3 14 -5 0 -13 -5 -16 -11z"/>
<path d="M5445 4470 c-3 -5 -1 -10 4 -10 6 0 11 5 11 10 0 6 -2 10 -4 10 -3 0
-8 -4 -11 -10z"/>
<path d="M7300 4470 c0 -5 5 -10 10 -10 6 0 10 5 10 10 0 6 -4 10 -10 10 -5 0
-10 -4 -10 -10z"/>
<path d="M4760 4459 c0 -5 5 -7 10 -4 6 3 10 8 10 11 0 2 -4 4 -10 4 -5 0 -10
-5 -10 -11z"/>
<path d="M5275 4460 c-3 -5 -1 -10 4 -10 6 0 11 5 11 10 0 6 -2 10 -4 10 -3 0
-8 -4 -11 -10z"/>
<path d="M5390 4460 c0 -5 5 -10 11 -10 5 0 7 5 4 10 -3 6 -8 10 -11 10 -2 0
-4 -4 -4 -10z"/>
<path d="M5350 4440 c0 -5 5 -10 10 -10 6 0 10 5 10 10 0 6 -4 10 -10 10 -5 0
-10 -4 -10 -10z"/>
<path d="M5420 4440 c0 -5 5 -10 10 -10 6 0 10 5 10 10 0 6 -4 10 -10 10 -5 0
-10 -4 -10 -10z"/>
<path d="M3221 4424 c0 -11 3 -14 6 -6 3 7 2 16 -1 19 -3 4 -6 -2 -5 -13z"/>
<path d="M4905 4430 c3 -5 12 -7 20 -3 21 7 19 13 -6 13 -11 0 -18 -4 -14 -10z"/>
<path d="M5000 4436 c0 -2 7 -9 15 -16 13 -11 14 -10 9 4 -5 14 -24 23 -24 12z"/>
<path d="M5145 4430 c-3 -5 -1 -10 4 -10 6 0 11 5 11 10 0 6 -2 10 -4 10 -3 0
-8 -4 -11 -10z"/>
<path d="M5245 4430 c-3 -5 -1 -10 4 -10 6 0 11 5 11 10 0 6 -2 10 -4 10 -3 0
-8 -4 -11 -10z"/>
<path d="M5287 4419 c-10 -11 -16 -23 -14 -26 5 -5 47 33 47 42 0 12 -17 4
-33 -16z"/>
<path d="M5380 4410 c0 -5 7 -10 16 -10 8 0 12 5 9 10 -3 6 -10 10 -16 10 -5
0 -9 -4 -9 -10z"/>
<path d="M5440 4400 c0 -5 7 -10 16 -10 8 0 12 5 9 10 -3 6 -10 10 -16 10 -5
0 -9 -4 -9 -10z"/>
<path d="M7035 4400 c3 -5 8 -10 11 -10 2 0 4 5 4 10 0 6 -5 10 -11 10 -5 0
-7 -4 -4 -10z"/>
<path d="M7195 4400 c3 -5 8 -10 11 -10 2 0 4 5 4 10 0 6 -5 10 -11 10 -5 0
-7 -4 -4 -10z"/>
<path d="M5355 4380 c4 -6 11 -8 16 -5 14 9 11 15 -7 15 -8 0 -12 -5 -9 -10z"/>
<path d="M6995 4370 c-3 -5 -1 -10 4 -10 6 0 11 5 11 10 0 6 -2 10 -4 10 -3 0
-8 -4 -11 -10z"/>
<path d="M5140 4360 c0 -5 12 -10 28 -9 24 0 25 1 7 9 -27 12 -35 12 -35 0z"/>
<path d="M5376 4354 c-8 -22 -4 -25 11 -9 7 8 9 16 4 19 -5 3 -12 -1 -15 -10z"/>
<path d="M3120 4340 c0 -5 5 -10 10 -10 6 0 10 5 10 10 0 6 -4 10 -10 10 -5 0
-10 -4 -10 -10z"/>
<path d="M3180 4339 c0 -5 5 -7 10 -4 6 3 10 8 10 11 0 2 -4 4 -10 4 -5 0 -10
-5 -10 -11z"/>
<path d="M3405 4340 c-3 -5 -1 -10 4 -10 6 0 11 5 11 10 0 6 -2 10 -4 10 -3 0
-8 -4 -11 -10z"/>
<path d="M5420 4346 c0 -2 7 -9 15 -16 9 -7 15 -8 15 -2 0 5 -7 12 -15 16 -8
3 -15 4 -15 2z"/>
<path d="M7101 4341 c-8 -5 -9 -11 -3 -15 5 -3 12 1 16 9 6 17 6 18 -13 6z"/>
<path d="M7300 4340 c0 -5 5 -10 10 -10 6 0 10 5 10 10 0 6 -4 10 -10 10 -5 0
-10 -4 -10 -10z"/>
<path d="M3220 4320 c0 -5 5 -10 11 -10 5 0 7 5 4 10 -3 6 -8 10 -11 10 -2 0
-4 -4 -4 -10z"/>
<path d="M4736 4313 c-6 -14 -5 -15 5 -6 7 7 10 15 7 18 -3 3 -9 -2 -12 -12z"/>
<path d="M5647 4319 c7 -7 15 -10 18 -7 3 3 -2 9 -12 12 -14 6 -15 5 -6 -5z"/>
<path d="M5375 4310 c3 -5 14 -10 23 -10 15 0 15 2 2 10 -20 13 -33 13 -25 0z"/>
<path d="M6990 4305 c-7 -9 -8 -15 -2 -15 5 0 12 7 16 15 3 8 4 15 2 15 -2 0
-9 -7 -16 -15z"/>
<path d="M7130 4310 c0 -5 5 -10 11 -10 5 0 7 5 4 10 -3 6 -8 10 -11 10 -2 0
-4 -4 -4 -10z"/>
<path d="M3192 4290 c0 -14 2 -19 5 -12 2 6 2 18 0 25 -3 6 -5 1 -5 -13z"/>
<path d="M4946 4302 c-3 -5 1 -9 9 -9 8 0 12 4 9 9 -3 4 -7 8 -9 8 -2 0 -6 -4
-9 -8z"/>
<path d="M5260 4300 c0 -5 5 -10 11 -10 5 0 7 5 4 10 -3 6 -8 10 -11 10 -2 0
-4 -4 -4 -10z"/>
<path d="M7178 4288 c-21 -21 -11 -24 15 -4 10 8 15 16 10 18 -4 3 -16 -3 -25
-14z"/>
<path d="M4906 4284 c-4 -10 -3 -20 3 -22 6 -2 0 -20 -14 -40 -31 -45 -32 -59
-3 -32 22 20 38 26 38 13 -1 -13 -24 -39 -40 -46 -8 -4 -1 -4 17 -1 17 3 45 6
62 6 17 1 31 5 31 9 0 4 8 10 18 13 9 3 -1 3 -23 1 -29 -3 -35 -2 -20 5 14 6
15 9 5 9 -13 1 -13 2 0 11 18 11 3 30 -27 33 -12 0 -19 6 -17 12 3 6 -2 19 -9
29 -13 18 -14 18 -21 0z"/>
<path d="M3225 4280 c-3 -5 1 -10 9 -10 9 0 16 5 16 10 0 6 -4 10 -9 10 -6 0
-13 -4 -16 -10z"/>
<path d="M5043 4273 c-7 -2 -13 -9 -13 -15 0 -6 6 -6 15 2 8 6 20 8 26 4 8 -4
9 -3 5 4 -8 13 -13 14 -33 5z"/>
<path d="M5320 4269 c0 -5 5 -7 10 -4 6 3 10 8 10 11 0 2 -4 4 -10 4 -5 0 -10
-5 -10 -11z"/>
<path d="M7100 4265 c0 -8 2 -15 4 -15 2 0 6 7 10 15 3 8 1 15 -4 15 -6 0 -10
-7 -10 -15z"/>
<path d="M5240 4259 c0 -5 5 -7 10 -4 6 3 10 8 10 11 0 2 -4 4 -10 4 -5 0 -10
-5 -10 -11z"/>
<path d="M3095 4250 c-3 -6 1 -7 9 -4 18 7 21 14 7 14 -6 0 -13 -4 -16 -10z"/>
<path d="M3185 4240 c-3 -5 1 -10 9 -10 9 0 16 5 16 10 0 6 -4 10 -9 10 -6 0
-13 -4 -16 -10z"/>
<path d="M3360 4240 c0 -5 5 -10 10 -10 6 0 10 5 10 10 0 6 -4 10 -10 10 -5 0
-10 -4 -10 -10z"/>
<path d="M5013 4235 c0 -8 4 -12 9 -9 5 3 6 10 3 15 -9 13 -12 11 -12 -6z"/>
<path d="M5348 4243 c7 -3 16 -2 19 1 4 3 -2 6 -13 5 -11 0 -14 -3 -6 -6z"/>
<path d="M3123 4225 c-7 -8 -9 -16 -5 -19 4 -3 13 4 20 15 14 22 3 25 -15 4z"/>
<path d="M3416 4231 c-3 -4 6 -6 19 -3 14 2 25 6 25 8 0 8 -39 4 -44 -5z"/>
<path d="M7198 4233 c7 -3 16 -2 19 1 4 3 -2 6 -13 5 -11 0 -14 -3 -6 -6z"/>
<path d="M5305 4220 c-3 -5 -1 -10 4 -10 6 0 11 5 11 10 0 6 -2 10 -4 10 -3 0
-8 -4 -11 -10z"/>
<path d="M7026 4218 c3 -5 10 -6 15 -3 13 9 11 12 -6 12 -8 0 -12 -4 -9 -9z"/>
<path d="M3060 4205 c0 -8 5 -15 11 -15 5 0 8 4 5 9 -4 5 0 12 6 14 8 3 6 6
-4 6 -10 1 -18 -6 -18 -14z"/>
<path d="M5045 4209 c-3 -4 2 -6 10 -5 21 3 28 13 10 13 -9 0 -18 -4 -20 -8z"/>
<path d="M5008 4203 c7 -3 16 -2 19 1 4 3 -2 6 -13 5 -11 0 -14 -3 -6 -6z"/>
<path d="M5175 4199 c-11 -16 -1 -19 13 -3 7 8 8 14 3 14 -5 0 -13 -5 -16 -11z"/>
<path d="M3147 4193 c-4 -3 -7 -11 -7 -17 0 -6 5 -5 12 2 6 6 9 14 7 17 -3 3
-9 2 -12 -2z"/>
<path d="M3278 4169 c-21 -23 -22 -26 -5 -26 7 0 18 11 24 24 13 28 5 29 -19
2z"/>
<path d="M3410 4169 c0 -5 5 -7 10 -4 6 3 10 8 10 11 0 2 -4 4 -10 4 -5 0 -10
-5 -10 -11z"/>
<path d="M5031 4170 c-19 -11 5 -23 25 -12 14 8 14 10 2 15 -8 3 -21 2 -27 -3z"/>
<path d="M3116 4157 c3 -10 9 -15 12 -12 3 3 0 11 -7 18 -10 9 -11 8 -5 -6z"/>
<path d="M5090 4160 c-13 -8 -12 -10 3 -10 9 0 17 5 17 10 0 12 -1 12 -20 0z"/>
<path d="M7140 4140 c-9 -6 -10 -10 -3 -10 6 0 15 5 18 10 8 12 4 12 -15 0z"/>
<path d="M7180 4134 c0 -8 5 -12 10 -9 6 4 8 11 5 16 -9 14 -15 11 -15 -7z"/>
<path d="M3150 4124 c0 -8 5 -12 10 -9 6 3 10 10 10 16 0 5 -4 9 -10 9 -5 0
-10 -7 -10 -16z"/>
<path d="M3295 4130 c-3 -5 -2 -10 4 -10 5 0 13 5 16 10 3 6 2 10 -4 10 -5 0
-13 -4 -16 -10z"/>
<path d="M5210 4130 c0 -5 5 -10 11 -10 5 0 7 5 4 10 -3 6 -8 10 -11 10 -2 0
-4 -4 -4 -10z"/>
<path d="M6905 4130 c-3 -5 -2 -10 4 -10 5 0 13 5 16 10 3 6 2 10 -4 10 -5 0
-13 -4 -16 -10z"/>
<path d="M6950 4130 c0 -5 5 -10 11 -10 5 0 7 5 4 10 -3 6 -8 10 -11 10 -2 0
-4 -4 -4 -10z"/>
<path d="M4940 4120 c0 -5 5 -10 10 -10 6 0 10 5 10 10 0 6 -4 10 -10 10 -5 0
-10 -4 -10 -10z"/>
<path d="M5085 4121 c2 -5 14 -11 25 -14 11 -3 18 -1 15 3 -3 5 1 10 7 13 7 2
-2 4 -20 5 -18 0 -30 -3 -27 -7z"/>
<path d="M7386 4113 c-6 -14 -5 -15 5 -6 7 7 10 15 7 18 -3 3 -9 -2 -12 -12z"/>
<path d="M3120 4099 c0 -5 5 -7 10 -4 6 3 10 8 10 11 0 2 -4 4 -10 4 -5 0 -10
-5 -10 -11z"/>
<path d="M3366 4095 c-3 -9 -6 -22 -5 -28 0 -7 5 -1 10 12 5 13 8 26 5 28 -2
2 -6 -3 -10 -12z"/>
<path d="M5176 4095 c-3 -8 -1 -15 3 -15 5 0 11 7 15 15 3 8 1 15 -3 15 -5 0
-11 -7 -15 -15z"/>
<path d="M7170 4110 c-8 -26 -7 -41 2 -32 6 6 8 16 5 24 -3 7 -6 11 -7 8z"/>
<path d="M7210 4100 c0 -5 5 -10 10 -10 6 0 10 5 10 10 0 6 -4 10 -10 10 -5 0
-10 -4 -10 -10z"/>
<path d="M5065 4090 c3 -5 10 -10 16 -10 5 0 9 5 9 10 0 6 -7 10 -16 10 -8 0
-12 -4 -9 -10z"/>
<path d="M5145 4090 c-3 -5 -1 -10 4 -10 6 0 11 5 11 10 0 6 -2 10 -4 10 -3 0
-8 -4 -11 -10z"/>
<path d="M5110 4080 c-13 -8 -12 -10 3 -10 9 0 17 5 17 10 0 12 -1 12 -20 0z"/>
<path d="M7245 4081 c-6 -11 9 -23 19 -14 9 9 7 23 -3 23 -6 0 -12 -4 -16 -9z"/>
<path d="M3097 4073 c-10 -9 -9 -23 1 -23 5 0 9 7 9 15 0 17 -1 18 -10 8z"/>
<path d="M3236 4065 c4 -8 10 -12 15 -9 11 6 2 24 -11 24 -5 0 -7 -7 -4 -15z"/>
<path d="M3290 4065 c0 -8 5 -15 10 -15 6 0 10 7 10 15 0 8 -4 15 -10 15 -5 0
-10 -7 -10 -15z"/>
<path d="M4950 4071 c0 -4 11 -6 25 -3 14 2 25 6 25 8 0 2 -11 4 -25 4 -14 0
-25 -4 -25 -9z"/>
<path d="M5486 4073 c-15 -4 -16 -7 -5 -13 7 -5 10 -12 6 -16 -3 -4 -13 -1
-22 6 -10 8 -15 9 -15 1 0 -6 6 -11 13 -11 7 0 8 -3 2 -8 -5 -4 -17 -16 -25
-27 -8 -11 3 -5 24 12 22 18 41 39 42 48 1 8 2 14 1 14 -1 -1 -11 -4 -21 -6z"/>
<path d="M7020 4070 c-9 -6 -10 -10 -3 -10 6 0 15 5 18 10 8 12 4 12 -15 0z"/>
<path d="M5140 4060 c0 -5 8 -6 17 -3 13 5 15 2 10 -11 -4 -10 -7 -23 -8 -29
0 -7 -4 -3 -9 8 -8 19 -9 19 -9 -2 -1 -32 25 -29 33 2 4 14 4 30 1 35 -8 13
-35 13 -35 0z"/>
<path d="M7100 4059 c0 -5 5 -7 10 -4 6 3 10 8 10 11 0 2 -4 4 -10 4 -5 0 -10
-5 -10 -11z"/>
<path d="M7207 4059 c7 -7 15 -10 18 -7 3 3 -2 9 -12 12 -14 6 -15 5 -6 -5z"/>
<path d="M3143 4045 c0 -8 4 -12 9 -9 4 3 8 9 8 15 0 5 -4 9 -8 9 -5 0 -9 -7
-9 -15z"/>
<path d="M3190 4050 c0 -5 5 -10 11 -10 5 0 7 5 4 10 -3 6 -8 10 -11 10 -2 0
-4 -4 -4 -10z"/>
<path d="M5010 4056 c0 -2 7 -6 15 -10 8 -3 15 -1 15 4 0 6 -7 10 -15 10 -8 0
-15 -2 -15 -4z"/>
<path d="M3266 4033 c-4 -9 -4 -14 0 -10 4 4 17 -1 28 -10 l21 -18 -20 25
c-11 14 -20 26 -21 28 -1 2 -5 -5 -8 -15z"/>
<path d="M7250 4023 c0 -10 4 -14 8 -8 4 6 11 13 16 18 5 4 2 7 -7 7 -10 0
-17 -8 -17 -17z"/>
<path d="M3220 4020 c0 -5 7 -10 16 -10 8 0 12 5 9 10 -3 6 -10 10 -16 10 -5
0 -9 -4 -9 -10z"/>
<path d="M3334 4015 c-10 -8 -14 -15 -7 -15 6 0 15 5 18 10 4 6 11 7 17 4 7
-4 8 -2 4 4 -9 15 -8 15 -32 -3z"/>
<path d="M3040 4006 c0 -2 7 -6 15 -10 8 -3 15 -1 15 4 0 6 -7 10 -15 10 -8 0
-15 -2 -15 -4z"/>
<path d="M5023 3995 c-8 -9 -9 -16 -3 -20 6 -3 10 -2 10 4 0 6 7 8 15 5 9 -4
15 0 15 10 0 20 -21 20 -37 1z"/>
<path d="M7220 4000 c0 -5 5 -10 11 -10 5 0 7 5 4 10 -3 6 -8 10 -11 10 -2 0
-4 -4 -4 -10z"/>
<path d="M5100 3991 c0 -6 5 -13 10 -16 6 -3 10 1 10 9 0 9 -4 16 -10 16 -5 0
-10 -4 -10 -9z"/>
<path d="M7056 3985 c-3 -8 -1 -15 4 -15 13 0 22 18 11 24 -5 3 -11 -1 -15 -9z"/>
<path d="M7160 3985 c0 -8 7 -15 15 -15 9 0 12 6 9 15 -4 8 -10 15 -15 15 -5
0 -9 -7 -9 -15z"/>
<path d="M3080 3982 c0 -5 7 -9 15 -9 8 0 12 4 9 9 -3 4 -9 8 -15 8 -5 0 -9
-4 -9 -8z"/>
<path d="M3145 3980 c3 -5 11 -10 16 -10 6 0 7 5 4 10 -3 6 -11 10 -16 10 -6
0 -7 -4 -4 -10z"/>
<path d="M5389 3974 c-7 -9 -22 -20 -34 -24 -12 -6 -14 -9 -5 -9 8 0 29 11 45
24 17 14 25 25 19 25 -6 0 -18 -7 -25 -16z"/>
<path d="M7260 3980 c0 -5 5 -10 10 -10 6 0 10 5 10 10 0 6 -4 10 -10 10 -5 0
-10 -4 -10 -10z"/>
<path d="M4980 3976 c0 -2 8 -10 18 -17 15 -13 16 -12 3 4 -13 16 -21 21 -21
13z"/>
<path d="M3126 3957 c3 -10 9 -15 12 -12 3 3 0 11 -7 18 -10 9 -11 8 -5 -6z"/>
<path d="M7212 3958 c-15 -15 -15 -28 0 -28 6 0 8 3 5 7 -4 3 -2 12 4 20 14
16 7 17 -9 1z"/>
<path d="M3236 3934 c-5 -13 -4 -14 7 -6 8 7 18 8 22 4 5 -4 5 -1 1 6 -10 17
-23 15 -30 -4z"/>
<path d="M3200 3916 c0 -2 7 -7 16 -10 8 -3 12 -2 9 4 -6 10 -25 14 -25 6z"/>
<path d="M5095 3906 c-18 -13 -18 -14 6 -25 19 -9 21 -9 7 1 -15 11 -15 13 0
25 23 17 11 17 -13 -1z"/>
<path d="M5158 3913 c7 -3 16 -2 19 1 4 3 -2 6 -13 5 -11 0 -14 -3 -6 -6z"/>
<path d="M5289 3918 c-5 -18 -6 -38 -1 -34 7 8 12 36 6 36 -2 0 -4 -1 -5 -2z"/>
<path d="M7165 3909 c-12 -19 5 -23 22 -6 16 16 16 17 1 17 -9 0 -20 -5 -23
-11z"/>
<path d="M5190 3900 c0 -5 5 -10 10 -10 6 0 10 5 10 10 0 6 -4 10 -10 10 -5 0
-10 -4 -10 -10z"/>
<path d="M3180 3885 c0 -8 4 -15 8 -15 5 0 9 7 9 15 0 8 -4 15 -9 15 -4 0 -8
-7 -8 -15z"/>
<path d="M5140 3890 c0 -5 5 -10 11 -10 5 0 7 5 4 10 -3 6 -8 10 -11 10 -2 0
-4 -4 -4 -10z"/>
<path d="M3106 3872 c-3 -5 1 -9 9 -9 8 0 15 4 15 9 0 4 -4 8 -9 8 -6 0 -12
-4 -15 -8z"/>
<path d="M3149 3863 c-13 -16 -12 -17 4 -4 16 13 21 21 13 21 -2 0 -10 -8 -17
-17z"/>
<path d="M5246 3865 c-11 -8 -15 -15 -9 -15 6 0 16 7 23 15 16 19 11 19 -14 0z"/>
<path d="M2959 3823 c-13 -16 -12 -17 4 -4 16 13 21 21 13 21 -2 0 -10 -8 -17
-17z"/>
<path d="M3070 3831 c0 -6 4 -13 10 -16 6 -3 7 1 4 9 -7 18 -14 21 -14 7z"/>
<path d="M5205 3830 c-3 -6 1 -7 9 -4 18 7 21 14 7 14 -6 0 -13 -4 -16 -10z"/>
<path d="M7226 3811 c-7 -11 3 -41 14 -41 5 0 11 6 13 13 4 9 7 9 14 0 6 -8
14 -9 23 -3 13 8 12 10 -2 10 -10 0 -18 5 -18 12 0 9 -3 9 -12 0 -17 -17 -29
-15 -22 3 7 16 -1 21 -10 6z"/>
<path d="M7375 3710 c3 -5 8 -10 11 -10 2 0 4 5 4 10 0 6 -5 10 -11 10 -5 0
-7 -4 -4 -10z"/>
<path d="M2905 3633 c-12 -29 -5 -107 11 -119 8 -6 14 -21 14 -33 0 -14 5 -21
13 -18 6 2 11 13 9 23 -1 10 -4 42 -5 69 -1 28 -7 49 -12 48 -6 -1 -12 8 -12
20 -2 15 0 18 6 8 5 -8 11 -9 15 -3 3 5 -1 13 -10 16 -21 8 -21 8 -29 -11z"/>
<path d="M7440 3574 c0 -8 5 -12 10 -9 6 4 8 11 5 16 -9 14 -15 11 -15 -7z"/>
<path d="M7351 3474 c0 -11 3 -14 6 -6 3 7 2 16 -1 19 -3 4 -6 -2 -5 -13z"/>
<path d="M2980 3409 c0 -5 5 -7 10 -4 6 3 10 8 10 11 0 2 -4 4 -10 4 -5 0 -10
-5 -10 -11z"/>
<path d="M2925 3330 c-3 -5 -1 -10 4 -10 6 0 11 5 11 10 0 6 -2 10 -4 10 -3 0
-8 -4 -11 -10z"/>
<path d="M4340 7055 c0 -15 -3 -16 -12 -7 -14 14 -28 16 -28 3 0 -5 10 -11 22
-15 28 -7 47 9 30 26 -9 9 -12 8 -12 -7z"/>
<path d="M4607 7064 c-11 -12 3 -24 29 -24 13 0 24 5 24 11 0 6 -6 9 -14 6 -7
-3 -18 -1 -23 4 -5 5 -12 6 -16 3z"/>
<path d="M4920 7054 c0 -8 5 -12 10 -9 6 4 8 11 5 16 -9 14 -15 11 -15 -7z"/>
<path d="M5055 7058 c4 -11 2 -18 -4 -18 -6 0 -11 5 -11 11 0 8 -4 8 -13 0
-10 -8 -17 -7 -25 1 -9 9 -12 9 -12 0 0 -7 6 -13 13 -14 6 0 17 -2 22 -2 6 -1
15 -5 21 -9 16 -9 28 23 14 37 -8 8 -9 6 -5 -6z"/>
<path d="M5600 7060 c0 -5 5 -10 11 -10 5 0 7 5 4 10 -3 6 -8 10 -11 10 -2 0
-4 -4 -4 -10z"/>
<path d="M5660 7060 c0 -5 5 -10 11 -10 5 0 7 5 4 10 -3 6 -8 10 -11 10 -2 0
-4 -4 -4 -10z"/>
<path d="M5695 7060 c-3 -5 -1 -10 4 -10 6 0 11 5 11 10 0 6 -2 10 -4 10 -3 0
-8 -4 -11 -10z"/>
<path d="M5724 7058 c-3 -4 1 -8 10 -8 8 0 22 -3 32 -7 11 -4 15 -2 12 7 -5
15 -46 21 -54 8z"/>
<path d="M5830 7062 c0 -6 -10 -8 -22 -4 -14 3 -19 1 -14 -6 3 -6 16 -9 28 -7
26 5 32 11 19 20 -6 3 -11 2 -11 -3z"/>
<path d="M5865 7059 c-10 -15 3 -25 16 -12 7 7 7 13 1 17 -6 3 -14 1 -17 -5z"/>
<path d="M5900 7055 c0 -8 9 -13 20 -12 11 1 20 4 20 8 0 4 -9 9 -20 12 -13 3
-20 0 -20 -8z"/>
<path d="M5953 7058 c-5 -9 -2 -10 29 -11 12 -1 23 3 25 8 4 12 -47 14 -54 3z"/>
<path d="M6090 7059 c0 -5 5 -7 10 -4 6 3 10 8 10 11 0 2 -4 4 -10 4 -5 0 -10
-5 -10 -11z"/>
<path d="M6120 7061 c0 -6 5 -13 10 -16 6 -3 10 1 10 9 0 9 -4 16 -10 16 -5 0
-10 -4 -10 -9z"/>
<path d="M6163 7055 c-10 -8 -13 -15 -6 -15 6 0 15 5 18 10 5 8 11 7 21 -1 8
-7 14 -7 14 -1 0 17 -27 21 -47 7z"/>
<path d="M6492 7050 c7 -10 14 -18 15 -16 6 6 -9 36 -18 36 -5 0 -4 -9 3 -20z"/>
<path d="M3995 7050 c3 -5 1 -10 -6 -10 -7 0 -10 -2 -7 -5 7 -8 38 5 38 16 0
5 -7 9 -16 9 -8 0 -12 -4 -9 -10z"/>
<path d="M4030 7053 c0 -7 4 -14 9 -17 12 -8 41 4 41 16 0 7 -5 6 -13 -1 -10
-8 -17 -7 -25 1 -9 9 -12 9 -12 1z"/>
<path d="M4095 7051 c3 -6 19 -8 36 -6 48 6 47 15 0 15 -24 0 -40 -4 -36 -9z"/>
<path d="M4185 7050 c3 -5 13 -10 21 -10 8 0 14 5 14 10 0 6 -9 10 -21 10 -11
0 -17 -4 -14 -10z"/>
<path d="M4235 7050 c3 -5 10 -10 16 -10 5 0 9 5 9 10 0 6 -7 10 -16 10 -8 0
-12 -4 -9 -10z"/>
<path d="M4270 7050 c0 -5 5 -10 10 -10 6 0 10 5 10 10 0 6 -4 10 -10 10 -5 0
-10 -4 -10 -10z"/>
<path d="M4373 7046 c2 -6 35 -9 80 -8 51 2 77 -1 77 -8 0 -7 6 -5 15 4 8 8
15 16 15 18 0 2 -43 3 -95 3 -60 1 -94 -3 -92 -9z"/>
<path d="M4573 7038 c-2 -18 0 -20 7 -8 12 18 13 30 2 30 -4 0 -9 -10 -9 -22z"/>
<path d="M4680 7053 c0 -16 17 -26 25 -13 4 6 11 8 16 5 5 -4 9 -1 9 4 0 14
-17 14 -26 0 -4 -8 -9 -7 -15 2 -6 10 -9 10 -9 2z"/>
<path d="M4745 7050 c4 -6 11 -8 16 -5 14 9 11 15 -7 15 -8 0 -12 -5 -9 -10z"/>
<path d="M4780 7050 c0 -5 5 -10 10 -10 6 0 10 5 10 10 0 6 -4 10 -10 10 -5 0
-10 -4 -10 -10z"/>
<path d="M5090 7048 c0 -4 3 -8 8 -9 4 0 17 -2 30 -5 12 -2 22 1 22 6 0 6 -3
10 -7 11 -5 0 -18 2 -30 3 -13 2 -23 -1 -23 -6z"/>
<path d="M5160 7051 c0 -5 7 -11 14 -14 10 -4 13 -1 9 9 -6 15 -23 19 -23 5z"/>
<path d="M5195 7050 c4 -6 11 -8 16 -5 14 9 11 15 -7 15 -8 0 -12 -5 -9 -10z"/>
<path d="M5230 7049 c0 -5 5 -7 10 -4 6 3 10 8 10 11 0 2 -4 4 -10 4 -5 0 -10
-5 -10 -11z"/>
<path d="M5295 7050 c3 -5 8 -10 11 -10 2 0 4 5 4 10 0 6 -5 10 -11 10 -5 0
-7 -4 -4 -10z"/>
<path d="M5334 7048 c12 -7 21 -7 28 0 6 6 0 10 -18 10 -23 0 -24 -2 -10 -10z"/>
<path d="M5380 7048 c0 -4 9 -8 20 -8 11 0 20 4 20 9 0 6 -9 9 -20 8 -11 -1
-20 -5 -20 -9z"/>
<path d="M5435 7050 c-3 -5 -1 -10 4 -10 6 0 11 5 11 10 0 6 -2 10 -4 10 -3 0
-8 -4 -11 -10z"/>
<path d="M5492 7046 c-33 -19 -38 -26 -16 -26 11 0 25 9 32 20 7 11 11 20 10
19 -2 -1 -13 -7 -26 -13z"/>
<path d="M6235 7050 c3 -5 11 -10 16 -10 6 0 7 5 4 10 -3 6 -11 10 -16 10 -6
0 -7 -4 -4 -10z"/>
<path d="M3885 7040 c-3 -5 -1 -10 4 -10 6 0 11 5 11 10 0 6 -2 10 -4 10 -3 0
-8 -4 -11 -10z"/>
<path d="M3910 7030 c0 -5 7 -7 15 -4 8 4 15 8 15 10 0 2 -7 4 -15 4 -8 0 -15
-4 -15 -10z"/>
<path d="M5645 7030 c-3 -5 -1 -10 4 -10 6 0 11 5 11 10 0 6 -2 10 -4 10 -3 0
-8 -4 -11 -10z"/>
<path d="M6090 7025 c6 -8 9 -19 5 -25 -3 -5 -2 -10 4 -10 15 0 19 24 5 37
-17 18 -29 16 -14 -2z"/>
<path d="M4220 7023 c0 -6 4 -14 10 -18 5 -3 7 -12 3 -20 -3 -8 0 -15 6 -15 6
0 11 6 11 13 0 17 -29 56 -30 40z"/>
<path d="M4260 7020 c0 -5 5 -10 10 -10 6 0 10 5 10 10 0 6 -4 10 -10 10 -5 0
-10 -4 -10 -10z"/>
<path d="M4660 7020 c0 -5 5 -10 10 -10 6 0 10 5 10 10 0 6 -4 10 -10 10 -5 0
-10 -4 -10 -10z"/>
<path d="M5230 7014 c0 -8 5 -12 10 -9 6 3 10 10 10 16 0 5 -4 9 -10 9 -5 0
-10 -7 -10 -16z"/>
<path d="M5320 7021 c0 -6 4 -11 10 -11 5 0 7 -7 4 -15 -4 -8 -1 -15 5 -15 6
0 11 7 11 15 0 12 8 14 31 10 18 -3 28 -2 25 4 -4 5 -19 9 -34 7 -15 -1 -33 2
-39 7 -9 6 -13 6 -13 -2z"/>
<path d="M5420 7020 c0 -5 5 -10 10 -10 6 0 10 5 10 10 0 6 -4 10 -10 10 -5 0
-10 -4 -10 -10z"/>
<path d="M5817 7016 c-4 -10 -5 -21 -2 -24 9 -9 17 6 13 25 -3 17 -4 17 -11
-1z"/>
<path d="M6220 7020 c0 -5 5 -10 10 -10 6 0 10 5 10 10 0 6 -4 10 -10 10 -5 0
-10 -4 -10 -10z"/>
<path d="M3867 7014 c-3 -5 3 -15 14 -22 16 -10 19 -9 19 4 0 8 -4 13 -9 10
-5 -4 -11 -1 -13 6 -3 7 -7 8 -11 2z"/>
<path d="M4300 7010 c0 -5 5 -10 10 -10 6 0 10 5 10 10 0 6 -4 10 -10 10 -5 0
-10 -4 -10 -10z"/>
<path d="M4816 7004 c-8 -21 -8 -24 3 -24 5 0 11 9 14 20 6 24 -8 27 -17 4z"/>
<path d="M4336 6991 c-3 -5 1 -11 9 -14 9 -4 12 -1 8 9 -6 16 -10 17 -17 5z"/>
<path d="M5292 6989 c2 -7 10 -15 17 -17 8 -3 12 1 9 9 -2 7 -10 15 -17 17 -8
3 -12 -1 -9 -9z"/>
<path d="M4300 6981 c0 -6 5 -13 10 -16 6 -3 10 1 10 9 0 9 -4 16 -10 16 -5 0
-10 -4 -10 -9z"/>
<path d="M4320 6940 c0 -5 5 -10 10 -10 6 0 10 5 10 10 0 6 -4 10 -10 10 -5 0
-10 -4 -10 -10z"/>
<path d="M1361 6434 c-66 -84 46 -187 124 -114 56 52 16 140 -64 140 -31 0
-44 -6 -60 -26z"/>
<path d="M8889 6441 c-35 -28 -33 -95 4 -127 36 -31 68 -30 106 2 85 71 -24
195 -110 125z"/>
<path d="M1371 5874 c-62 -78 41 -165 106 -90 30 35 29 61 -2 91 -33 34 -77
33 -104 -1z"/>
<path d="M8890 5880 c-43 -43 -12 -123 49 -123 66 0 101 84 52 125 -30 24 -76
23 -101 -2z"/>
<path d="M1295 5210 c-10 -11 -13 -20 -8 -20 13 0 38 29 31 35 -3 3 -13 -4
-23 -15z"/>
<path d="M1596 4963 c-6 -14 -5 -15 5 -6 7 7 10 15 7 18 -3 3 -9 -2 -12 -12z"/>
<path d="M1556 4915 c-11 -8 -17 -17 -14 -20 2 -3 13 4 23 15 21 23 18 25 -9
5z"/>
<path d="M8830 5215 c-7 -9 -11 -17 -9 -20 3 -2 10 5 17 15 14 24 10 26 -8 5z"/>
<path d="M1240 4101 c0 -6 4 -13 10 -16 6 -3 7 1 4 9 -7 18 -14 21 -14 7z"/>
<path d="M8988 4013 c7 -3 16 -2 19 1 4 3 -2 6 -13 5 -11 0 -14 -3 -6 -6z"/>
<path d="M6940 3810 c0 -5 5 -10 10 -10 6 0 10 5 10 10 0 6 -4 10 -10 10 -5 0
-10 -4 -10 -10z"/>
<path d="M1776 3052 c-3 -5 1 -9 9 -9 8 0 12 4 9 9 -3 4 -7 8 -9 8 -2 0 -6 -4
-9 -8z"/>
<path d="M1780 3019 c0 -5 5 -7 10 -4 6 3 10 8 10 11 0 2 -4 4 -10 4 -5 0 -10
-5 -10 -11z"/>
<path d="M8771 3414 c0 -11 3 -14 6 -6 3 7 2 16 -1 19 -3 4 -6 -2 -5 -13z"/>
<path d="M8755 3379 c-4 -6 -5 -12 -2 -15 2 -3 7 2 10 11 7 17 1 20 -8 4z"/>
<path d="M8565 3329 c-4 -6 -5 -12 -2 -15 2 -3 7 2 10 11 7 17 1 20 -8 4z"/>
<path d="M2993 2810 c-47 -28 -62 -85 -37 -136 48 -97 191 -101 231 -6 21 50
11 100 -27 135 -25 22 -40 27 -83 27 -34 0 -63 -7 -84 -20z"/>
<path d="M7231 2822 c-19 -9 -43 -33 -53 -54 -46 -89 43 -197 140 -169 79 23
114 81 93 152 -21 70 -112 107 -180 71z"/>
<path d="M3985 2424 c-34 -37 -33 -78 4 -115 53 -52 133 -26 147 48 5 27 1 37
-24 63 -40 40 -92 42 -127 4z"/>
<path d="M6265 2425 c-41 -40 -33 -105 16 -130 40 -21 63 -19 98 11 61 51 26
144 -54 144 -25 0 -44 -8 -60 -25z"/>
<path d="M5289 1316 c14 -14 26 -24 29 -22 7 8 -8 25 -31 37 -21 11 -21 10 2
-15z"/>
<path d="M5055 1310 c-10 -11 -13 -20 -7 -20 6 0 16 9 22 20 6 11 9 20 7 20
-2 0 -12 -9 -22 -20z"/>
<path d="M5052 1260 c0 -14 2 -19 5 -12 2 6 2 18 0 25 -3 6 -5 1 -5 -13z"/>
<path d="M5183 1113 c9 -2 23 -2 30 0 6 3 -1 5 -18 5 -16 0 -22 -2 -12 -5z"/>
<path d="M4088 1243 c7 -3 16 -2 19 1 4 3 -2 6 -13 5 -11 0 -14 -3 -6 -6z"/>
<path d="M4188 1223 c7 -3 16 -2 19 1 4 3 -2 6 -13 5 -11 0 -14 -3 -6 -6z"/>
<path d="M5945 1169 c15 -7 10 -8 -20 -4 -33 4 -36 3 -16 -5 13 -6 40 -7 60
-4 30 6 32 8 16 15 -11 4 -29 8 -40 8 l-20 0 20 -10z"/>
<path d="M5860 1150 c-12 -8 -10 -10 8 -10 13 0 20 4 17 10 -7 12 -6 12 -25 0z"/>
</g>
</svg>
